<svg width="85" height="40" viewBox="0 0 85 40" fill="none" xmlns="http://www.w3.org/2000/svg">
<path d="M78.6393 38.6655L84.2732 35.2146C84.7244 34.9379 84.9997 34.4459 84.9997 33.9151L85 2.06928C85 1.47871 84.523 1.00001 83.9345 1.00001L7.54606 1.00001C7.12782 1.00001 6.71754 1.11569 6.36073 1.33449L0.726787 4.78581C0.275554 5.06207 0.000269953 5.55447 0.000269906 6.08491L9.34781e-08 37.9307C4.18489e-08 38.5213 0.47702 39 1.06551 39L77.4539 39C77.8722 39 78.2821 38.8843 78.6393 38.6655Z" fill="#6378BA"/>
<path d="M14.792 8.064V28.028H16.836L17.452 26.572C18.124 27.356 19.328 28.42 21.456 28.42C25.18 28.42 27.392 25.788 27.392 21.588C27.392 17.164 24.704 14.616 21.456 14.616C20.112 14.616 19.048 15.092 18.432 15.54V8.064H14.792ZM20.84 17.864C22.548 17.864 23.668 19.068 23.668 21.476C23.668 24.024 22.464 25.172 20.868 25.172C19.916 25.172 19.02 24.696 18.432 24.108V18.732C19.132 18.2 19.944 17.864 20.84 17.864ZM41.3025 27.048L40.0145 24.416H39.5945C38.8105 24.976 38.1385 25.256 37.3825 25.256C36.5985 25.256 36.0105 24.752 36.0105 23.8V8.064H29.2345V11.088H32.3705V23.576C32.3705 26.908 34.0505 28.476 37.0465 28.476C38.6425 28.476 40.0425 27.944 41.3025 27.048ZM55.9662 21.504C55.9662 17.164 53.3622 14.616 49.4142 14.616C45.4662 14.616 42.8622 17.164 42.8622 21.504C42.8622 25.592 45.1582 28.42 49.4422 28.42C53.6982 28.42 55.9662 25.592 55.9662 21.504ZM52.2422 21.504C52.2422 23.856 51.3742 25.48 49.4142 25.48C47.4542 25.48 46.5862 23.856 46.5862 21.504C46.5862 19.152 47.4542 17.612 49.4142 17.612C51.3742 17.612 52.2422 19.152 52.2422 21.504ZM64.4382 30.464C62.8982 30.464 61.6662 29.876 60.9662 29.316H60.4622L59.3702 32.116C60.5462 33.068 62.8982 33.628 64.8302 33.628C68.8622 33.628 71.1302 31.22 71.1302 27.524V15.12H69.5622L68.9182 16.184C67.7702 15.344 66.3422 14.616 64.5782 14.616C61.1902 14.616 58.5022 17.192 58.5022 21.364C58.5022 25.564 61.3022 27.664 64.3262 27.664C65.9782 27.664 67.0142 26.908 67.4902 26.348V27.804C67.4902 29.568 66.2582 30.464 64.4382 30.464ZM65.0542 17.836C65.9502 17.836 66.7342 18.144 67.4902 18.676V23.52C66.8462 24.164 65.9502 24.668 64.9982 24.668C63.3742 24.668 62.2262 23.548 62.2262 21.336C62.2262 19.152 63.3182 17.836 65.0542 17.836Z" fill="white"/>
</svg>
