<svg width="46" height="46" viewBox="0 0 46 46" fill="none" xmlns="http://www.w3.org/2000/svg">
<path d="M41.4 0H4.6C2.07 0 0.023 2.07 0.023 4.6L0 46L9.2 36.8H41.4C43.93 36.8 46 34.73 46 32.2V4.6C46 2.07 43.93 0 41.4 0ZM16.1 18.4C16.1 19.6703 15.0703 20.7 13.8 20.7C12.5297 20.7 11.5 19.6703 11.5 18.4C11.5 17.1297 12.5297 16.1 13.8 16.1C15.0703 16.1 16.1 17.1297 16.1 18.4ZM25.3 18.4C25.3 19.6703 24.2703 20.7 23 20.7C21.7297 20.7 20.7 19.6703 20.7 18.4C20.7 17.1297 21.7297 16.1 23 16.1C24.2703 16.1 25.3 17.1297 25.3 18.4ZM34.5 18.4C34.5 19.6703 33.4703 20.7 32.2 20.7C30.9297 20.7 29.9 19.6703 29.9 18.4C29.9 17.1297 30.9297 16.1 32.2 16.1C33.4703 16.1 34.5 17.1297 34.5 18.4Z" fill="#00B7C2"/>
</svg>
