<svg width="46" height="46" viewBox="0 0 22 23" fill="none" xmlns="http://www.w3.org/2000/svg">
<path d="M19.8 0.449402H2.2C0.99 0.449402 0.011 1.4394 0.011 2.6494L0 22.4494L4.4 18.0494H19.8C21.01 18.0494 22 17.0594 22 15.8494V2.6494C22 1.4394 21.01 0.449402 19.8 0.449402Z" class="u-fillRed" />
<path d="M7.7 9.24941C7.7 9.85693 7.20751 10.3494 6.6 10.3494V10.3494C5.99249 10.3494 5.5 9.85693 5.5 9.24941V9.24941C5.5 8.6419 5.99249 8.14941 6.6 8.14941V8.14941C7.20751 8.14941 7.7 8.6419 7.7 9.24941V9.24941Z" class="dot1"/>
<path d="M12.1 9.24941C12.1 8.6419 11.6075 8.14941 11 8.14941C10.3925 8.14941 9.89999 8.6419 9.89999 9.24941C9.89999 9.85693 10.3925 10.3494 11 10.3494C11.6075 10.3494 12.1 9.85693 12.1 9.24941Z" class="dot2"/>
<path d="M16.5 9.24941C16.5 8.6419 16.0075 8.14941 15.4 8.14941C14.7925 8.14941 14.3 8.6419 14.3 9.24941C14.3 9.85693 14.7925 10.3494 15.4 10.3494C16.0075 10.3494 16.5 9.85693 16.5 9.24941Z" class="dot3"/>
</svg>
