<svg width="20" height="24" viewBox="0 0 20 24" fill="none" xmlns="http://www.w3.org/2000/svg">
<path fill-rule="evenodd" clip-rule="evenodd" d="M2 0C0.895431 0 0 0.89543 0 2V22C0 23.1046 0.895431 24 2 24H18C19.1046 24 20 23.1046 20 22V2C20 0.895431 19.1046 0 18 0H2ZM16 8H15H4C3.44772 8 3 8.44771 3 9C3 9.55228 3.44772 10 4 10H15H16C16.5523 10 17 9.55228 17 9C17 8.44771 16.5523 8 16 8ZM4 4H16C16.5523 4 17 4.44772 17 5C17 5.55228 16.5523 6 16 6H4C3.44772 6 3 5.55228 3 5C3 4.44772 3.44772 4 4 4ZM16 12H4C3.44772 12 3 12.4477 3 13C3 13.5523 3.44772 14 4 14H16C16.5523 14 17 13.5523 17 13C17 12.4477 16.5523 12 16 12ZM4 16H11C11.5523 16 12 16.4477 12 17C12 17.5523 11.5523 18 11 18H4C3.44772 18 3 17.5523 3 17C3 16.4477 3.44772 16 4 16Z" class="fillStd"/>
</svg>
