<svg viewBox="0 0 20 25" fill="none" xmlns="http://www.w3.org/2000/svg" id="el_b1suQi3ZQ"><style></style>
<rect y="0.349976" width="20" height="24" rx="2" class="u-fillRed"/>
<path d="M16 8.34998H4C3.44772 8.34998 3 8.79769 3 9.34998C3 9.90226 3.44772 10.35 4 10.35H16C16.5523 10.35 17 9.90226 17 9.34998C17 8.79769 16.5523 8.34998 16 8.34998Z" class="part2"/>
<path d="M16 4.34998H4C3.44772 4.34998 3 4.79769 3 5.34998C3 5.90226 3.44772 6.34998 4 6.34998H16C16.5523 6.34998 17 5.90226 17 5.34998C17 4.79769 16.5523 4.34998 16 4.34998Z" class="part1"/>
<path d="M16 12.35H4C3.44772 12.35 3 12.7977 3 13.35C3 13.9023 3.44772 14.35 4 14.35H16C16.5523 14.35 17 13.9023 17 13.35C17 12.7977 16.5523 12.35 16 12.35Z" class="part3"/>
<path d="M11 16.35H4C3.44772 16.35 3 16.7977 3 17.35C3 17.9023 3.44772 18.35 4 18.35H11C11.5523 18.35 12 17.9023 12 17.35C12 16.7977 11.5523 16.35 11 16.35Z" class="part4"/>
</svg>
