<svg width="24" height="24" viewBox="0 0 24 24" xmlns="http://www.w3.org/2000/svg">
<path fill-rule="evenodd" clip-rule="evenodd" d="M24 12C24 5.373 18.6278 0 12 0C5.37225 0 0 5.373 0 12C0 18.627 5.37225 24 12 24C18.6278 24 24 18.627 24 12ZM5 8.65369V7H19V8.65369C18.9298 8.65364 18.8584 8.66847 18.7905 8.69983L12 11.8339L5.20953 8.69983C5.14158 8.66847 5.07022 8.65364 5 8.65369ZM12.2095 12.8386L19 9.70449V16.6923H5V9.70449L11.7905 12.8386C11.9234 12.8999 12.0766 12.8999 12.2095 12.8386Z" class="fillStd" />
</svg>
