<svg width="24" height="24" viewBox="0 0 24 24" fill="none" xmlns="http://www.w3.org/2000/svg">
<path d="M12 0C5.25 0 0 5.41935 0 12.3871C0 20.5161 7.125 24 8.25 24C9 24 9 23.6129 9 23.2258V21.2903C6.375 22.0645 5.25 20.5161 4.875 19.3548C4.875 19.3548 4.875 18.9677 4.125 18.1935C3.75 17.8065 2.25 17.0323 3.75 17.0323C4.875 17.0323 5.625 18.5806 5.625 18.5806C6.75 20.129 8.25 19.7419 9 19.3548C9 18.5806 9.75 17.8065 9.75 17.8065C6.75 17.4194 4.5 16.2581 4.5 12C4.5 10.4516 4.875 9.29032 5.625 8.51613C5.625 8.51613 4.875 6.96774 5.625 5.03226C5.625 5.03226 7.5 5.03226 9 6.58065C10.125 5.80645 13.875 5.80645 15 6.58065C16.5 5.03226 18.375 5.03226 18.375 5.03226C19.125 7.74194 18.375 8.51613 18.375 8.51613C19.125 9.29032 19.5 10.4516 19.5 12C19.5 16.2581 16.875 17.4194 14.25 17.8065C14.625 18.1935 15 18.9677 15 20.129V23.2258C15 23.6129 15 24 15.75 24C16.875 24 24 20.5161 24 12.3871C24 5.41935 18.75 0 12 0Z" fill="#9A9A9A"/>
</svg>
