<svg width="24" height="24" viewBox="0 0 24 24" xmlns="http://www.w3.org/2000/svg"><style></style>
<path d="M0 12.3871C0 5.41935 5.25 0 12 0C18.75 0 24 5.41935 24 12.3871C24 20.5161 16.875 24 15.75 24C15 24 15 23.6129 15 23.2258V20.129C15 18.9677 14.625 18.1935 14.25 17.8065C16.875 17.4194 19.5 16.2581 19.5 12C19.5 10.4516 19.125 9.29032 18.375 8.51613C18.375 8.51613 19.125 7.74194 18.375 5.03226C18.375 5.03226 16.5 5.03226 15 6.58065C13.875 5.80645 10.125 5.80645 9 6.58065C7.5 5.03226 5.625 5.03226 5.625 5.03226C4.875 6.96774 5.625 8.51613 5.625 8.51613C4.875 9.29032 4.5 10.4516 4.5 12C4.5 16.2581 6.75 17.4194 9.75 17.8065C9.75 17.8065 9 18.5 9 19.5V21.5V23.2258C9 23.6129 9 24 8.25 24C7.125 24 0 20.5161 0 12.3871Z" class="u-fillRed"/>
<g class="limb" data-animator-group="true" data-animator-type="1"><path d="M4.87501 19.3548C5.25001 20.5161 6.37501 22.0645 9.00001 21.2903C9.00001 21.2903 10.0053 20.8523 10.0053 20.1594C10.0053 19.4665 9.00001 19.3548 9.00001 19.3548C8.25001 19.7419 6.75001 20.129 5.62501 18.5806C5.62501 18.5806 4.87501 17.0323 3.75001 17.0323C2.25001 17.0323 3.75001 17.8065 4.12501 18.1935C4.87501 18.9677 4.87501 19.3548 4.87501 19.3548Z" class="u-fillWhite"/></g>
</svg>
