<svg width="608" height="146" viewBox="0 0 608 146" fill="none" xmlns="http://www.w3.org/2000/svg">
<path d="M352.22 110.967H311.723V4.17777C311.723 1.89351 309.856 0.0300293 307.568 0.0300293H267.432C265.144 0.0300293 263.277 1.89351 263.277 4.17777V141.053C263.277 143.338 265.144 145.201 267.432 145.201H311.753H352.25C354.539 145.201 356.406 143.338 356.406 141.053V115.115C356.406 112.831 354.539 110.967 352.22 110.967Z" fill="#03C7D3"/>
<path d="M457.423 110.967H416.926V4.17777C416.926 1.89351 415.059 0.0300293 412.77 0.0300293H372.635C370.346 0.0300293 368.479 1.89351 368.479 4.17777V141.053C368.479 143.338 370.346 145.201 372.635 145.201H416.956H457.453C459.741 145.201 461.608 143.338 461.608 141.053V115.115C461.578 112.831 459.711 110.967 457.423 110.967Z" fill="#03C7D3"/>
<path d="M245.633 0.0300293H192.64H183.156H152.474C150.186 0.0300293 148.319 1.89351 148.319 4.17777V115.115V141.023C148.319 143.308 150.186 145.171 152.474 145.171H192.61H245.603C247.891 145.171 249.758 143.308 249.758 141.023V115.115C249.758 112.831 247.891 110.967 245.603 110.967H196.765V89.7175H234.251C236.54 89.7175 238.407 87.854 238.407 85.5698V59.6614C238.407 57.3771 236.54 55.5136 234.251 55.5136H196.765V37.51H245.603C247.891 37.51 249.758 35.6465 249.758 33.3623V4.17777C249.788 1.89351 247.921 0.0300293 245.633 0.0300293Z" fill="#03C7D3"/>
<path d="M128.959 0.0303955H88.8229C86.5345 0.0303955 84.6678 1.89388 84.6678 4.17814V55.514H48.4762V4.17814C48.4762 1.89388 46.6094 0.0303955 44.3211 0.0303955H4.1551C1.86679 0.0303955 0 1.89388 0 4.17814V141.054C0 143.338 1.86679 145.201 4.1551 145.201H44.291C46.5793 145.201 48.4461 143.338 48.4461 141.054V89.7179H84.6376V141.054C84.6376 143.338 86.5044 145.201 88.7927 145.201H128.929C131.217 145.201 133.084 143.338 133.084 141.054V4.17814C133.114 1.89388 131.277 0.0303955 128.959 0.0303955Z" fill="#03C7D3"/>
<path d="M535.286 0C495.12 0 462.571 32.4907 462.571 72.6156C462.571 112.741 495.12 145.231 535.286 145.231C575.452 145.231 608 112.741 608 72.6156C608 32.4907 575.452 0 535.286 0ZM535.286 94.8872C522.941 94.8872 512.944 84.9086 512.944 72.5855C512.944 60.2625 522.941 50.2839 535.286 50.2839C547.631 50.2839 557.627 60.2625 557.627 72.5855C557.627 84.9086 547.6 94.8872 535.286 94.8872Z" fill="#03C7D3"/>
</svg>
