<svg fill="none" height="186" viewBox="0 0 199 186" width="199" xmlns="http://www.w3.org/2000/svg" xmlns:xlink="http://www.w3.org/1999/xlink"><mask id="a" fill="#fff"><path d="m77.8975 80.8269 21.4615-10.8782 21.462 10.8782v24.3461l-21.462 10.878-21.4615-10.878z" fill="#fff"/></mask><mask id="b" fill="#fff"><path d="m62 116.73 16.6923-8.627 16.6923 8.627v19.309l-16.6923 8.628-16.6923-8.628z" fill="#fff"/></mask><mask id="c" fill="#fff"><path d="m165.333 83.3454 16.693-8.6274 16.692 8.6274v19.3096l-16.692 8.627-16.693-8.627z" fill="#fff"/></mask><mask id="d" fill="#fff"><path d="m82.6667 16.5762 16.6924-8.62747 16.6919 8.62747v19.3091l-16.6919 8.6275-16.6924-8.6275z" fill="#fff"/></mask><mask id="e" fill="#fff"><path d="m103.333 49.9608 16.693-8.6275 16.692 8.6275v19.3091l-16.692 8.6275-16.693-8.6275z" fill="#fff"/></mask><mask id="f" fill="#fff"><path d="m124 151.704 16.692-8.627 16.693 8.627v19.31l-16.693 8.627-16.692-8.627z" fill="#fff"/></mask><mask id="g" fill="#fff"><path d="m20.6667 116.73 16.6924-8.627 16.6923 8.627v19.309l-16.6923 8.628-16.6924-8.628z" fill="#fff"/></mask><mask id="h" fill="#fff"><path d="m124 83.3454 16.692-8.6274 16.693 8.6274v19.3096l-16.693 8.627-16.692-8.627z" fill="#fff"/></mask><mask id="i" fill="#fff"><path d="m20.6667 49.9608 16.6924-8.6275 16.6923 8.6275v19.3091l-16.6923 8.6275-16.6924-8.6275z" fill="#fff"/></mask><mask id="j" fill="#fff"><path d="m82.6667 150.115 16.6924-8.628 16.6919 8.628v19.309l-16.6919 8.627-16.6924-8.627z" fill="#fff"/></mask><mask id="k" fill="#fff"><path d="m41.3333 83.3454 16.6923-8.6274 16.6923 8.6274v19.3096l-16.6923 8.627-16.6923-8.627z" fill="#fff"/></mask><mask id="l" fill="#fff"><path d="m144.667 49.9608 16.692-8.6275 16.692 8.6275v19.3091l-16.692 8.6275-16.692-8.6275z" fill="#fff"/></mask><mask id="m" fill="#fff"><path d="m41.3333 151.704 16.6923-8.627 16.6923 8.627v19.31l-16.6923 8.627-16.6923-8.627z" fill="#fff"/></mask><mask id="n" fill="#fff"><path d="m103.333 116.73 16.693-8.627 16.692 8.627v19.309l-16.692 8.628-16.693-8.628z" fill="#fff"/></mask><mask id="o" fill="#fff"><path d="m41.3333 14.9864 16.6923-8.62745 16.6923 8.62745v19.3092l-16.6923 8.6274-16.6923-8.6274z" fill="#fff"/></mask><mask id="p" fill="#fff"><path d="m124 14.9864 16.692-8.62745 16.693 8.62745v19.3092l-16.693 8.6274-16.692-8.6274z" fill="#fff"/></mask><mask id="q" fill="#fff"><path d="m62 49.9608 16.6923-8.6275 16.6923 8.6275v19.3091l-16.6923 8.6275-16.6923-8.6275z" fill="#fff"/></mask><mask id="r" fill="#fff"><path d="m144.667 116.73 16.692-8.627 16.692 8.627v19.309l-16.692 8.628-16.692-8.628z" fill="#fff"/></mask><mask id="s" fill="#fff"><path d="m0 83.3454 16.6923-8.6274 16.6923 8.6274v19.3096l-16.6923 8.627-16.6923-8.627z" fill="#fff"/></mask><mask id="t" fill="#fff"><path d="m82.6667 83.3454 16.6924-8.6274 16.6919 8.6274v19.3096l-16.6919 8.627-16.6924-8.627z" fill="#fff"/></mask><path d="m77.8975 80.8269 21.4615-10.8782 21.462 10.8782v24.3461l-21.462 10.878-21.4615-10.878z" mask="url(#a)" stroke="#20ba31" stroke-width="6"/><path d="m12.718 43.8876 86.641-43.8876 86.641 43.8876v98.2244l-86.641 43.888-86.641-43.888z" fill="#20ba31"/><path d="m62 116.73 16.6923-8.627 16.6923 8.627v19.309l-16.6923 8.628-16.6923-8.628z" fill="#fff"/><path d="m87.0385 121.044-.2296-.444zm-25.2681-3.87 16.6923 8.628.4592-.889-16.6923-8.627zm16.4219 8.184v19.309h1v-19.309zm.7296.444 8.3461-4.314-.4591-.888-8.3462 4.313zm8.3461-4.314 8.3462-4.314-.4592-.888-8.3461 4.314zm-8.5757-13.385.4592-.889-.4592-.237-.4591.237zm-16.6923 8.627-.4592-.888-.5408.279v.609zm33.3846 0h1v-.609l-.5408-.279zm-16.6923 27.937-.4591.888.4591.237.4592-.237zm16.6923-8.628.4592.889.5408-.28v-.609zm-33.3846 0h-1v.609l.5408.28zm16.2332-28.825-16.6924 8.628.9184 1.776 16.6923-8.627zm17.6106 8.628-16.6923-8.628-.9183 1.777 16.6923 8.627zm-16.6923 29.713 16.6923-8.627-.9183-1.777-16.6923 8.627zm17.2331-9.516v-19.309h-2v19.309zm-35.3846-19.309v19.309h2v-19.309zm.5408 20.198 16.6924 8.627.9183-1.777-16.6923-8.627z" fill="#20ba31" mask="url(#b)"/><path d="m165.333 83.3454 16.693-8.6274 16.692 8.6274v19.3096l-16.692 8.627-16.693-8.627z" fill="#fff"/><path d="m190.372 87.6592-.23-.4442zm-25.268-3.8696 16.692 8.6275.459-.8884-16.692-8.6274zm16.422 8.1833v19.3091h1v-19.3091zm.729.4442 8.346-4.3137-.459-.8884-8.346 4.3137zm8.346-4.3137 8.346-4.3138-.459-.8883-8.346 4.3137zm-8.575-13.3854.459-.8884-.459-.2373-.46.2373zm-16.693 8.6274-.459-.8883-.541.2795v.6088zm33.385 0h1v-.6088l-.541-.2795zm-16.692 27.9366-.46.888.46.238.459-.238zm16.692-8.627.459.888.541-.28v-.608zm-33.385 0h-1v.608l.541.28zm16.233-28.8254-16.692 8.6275.918 1.7767 16.693-8.6275zm17.611 8.6275-16.692-8.6275-.919 1.7767 16.693 8.6275zm-16.692 29.7129 16.692-8.627-.918-1.777-16.693 8.628zm17.233-9.515v-19.3096h-2v19.3096zm-35.385-19.3096v19.3096h2v-19.3096zm.541 20.1976 16.692 8.627.919-1.776-16.693-8.628z" fill="#20ba31" mask="url(#c)"/><path d="m82.6667 16.5762 16.6924-8.62747 16.6919 8.62747v19.3091l-16.6919 8.6275-16.6924-8.6275z" fill="#fff"/><path d="m107.705 20.89-.229-.4442zm-25.2678-3.8696 16.6923 8.6275.4591-.8884-16.6923-8.6275zm16.4219 8.1833v19.3091h1v-19.3091zm.7295.4442 8.3464-4.3138-.459-.8883-8.3465 4.3137zm8.3464-4.3138 8.346-4.3137-.459-.8884-8.346 4.3138zm-8.5759-13.38537.4591-.88836-.4591-.23731-.4592.23731zm-16.6924 8.62747-.4591-.8883-.5409.2795v.6088zm33.3843 0h1v-.6088l-.54-.2795zm-16.6919 27.9366-.4592.8884.4592.2373.4591-.2373zm16.6919-8.6275.46.8884.54-.2795v-.6089zm-33.3843 0h-1v.6089l.5409.2795zm16.2332-28.82493-16.6923 8.62753.9183 1.7767 16.6923-8.62751zm17.6111 8.62753-16.6928-8.62753-.9183 1.77672 16.6921 8.62751zm-16.6928 29.7133 16.6928-8.6275-.919-1.7767-16.6921 8.6275zm17.2328-9.5159v-19.3091h-2v19.3091zm-35.3843-19.3091v19.3091h2v-19.3091zm.5409 20.1975 16.6923 8.6275.9183-1.7767-16.6923-8.6275z" fill="#20ba31" mask="url(#d)"/><path d="m103.333 49.9608 16.693-8.6275 16.692 8.6275v19.3091l-16.692 8.6275-16.693-8.6275z" fill="#fff"/><path d="m128.372 54.2745-.23-.4441zm-25.268-3.8695 16.692 8.6275.459-.8884-16.692-8.6275zm16.422 8.1833v19.3091h1v-19.3091zm.729.4442 8.346-4.3138-.459-.8883-8.346 4.3137zm8.346-4.3138 8.346-4.3137-.459-.8884-8.346 4.3138zm-8.575-13.3854.459-.8883-.459-.2374-.46.2374zm-16.693 8.6275-.459-.8884-.541.2796v.6088zm33.385 0h1v-.6088l-.541-.2796zm-16.692 27.9366-.46.8884.46.2373.459-.2373zm16.692-8.6275.459.8884.541-.2796v-.6088zm-33.385 0h-1v.6088l.541.2796zm16.233-28.8249-16.692 8.6274.918 1.7768 16.693-8.6275zm17.611 8.6274-16.692-8.6274-.919 1.7767 16.693 8.6275zm-16.692 29.7134 16.692-8.6275-.918-1.7767-16.693 8.6275zm17.233-9.5159v-19.3091h-2v19.3091zm-35.385-19.3091v19.3091h2v-19.3091zm.541 20.1975 16.692 8.6275.919-1.7767-16.693-8.6275z" fill="#20ba31" mask="url(#e)"/><path d="m124 151.704 16.692-8.627 16.693 8.627v19.31l-16.693 8.627-16.692-8.627z" fill="#fff"/><path d="m149.038 156.018-.229-.444zm-25.268-3.869 16.693 8.627.459-.888-16.692-8.628zm16.422 8.183v19.309h1v-19.309zm.73.444 8.346-4.314-.459-.888-8.346 4.314zm8.346-4.314 8.346-4.313-.459-.889-8.346 4.314zm-8.576-13.385.459-.888-.459-.238-.459.238zm-16.692 8.627-.459-.888-.541.28v.608zm33.385 0h1v-.608l-.541-.28zm-16.693 27.937-.459.888.459.238.459-.238zm16.693-8.627.459.888.541-.28v-.608zm-33.385 0h-1v.608l.541.28zm16.233-28.825-16.692 8.627.918 1.777 16.692-8.628zm17.611 8.627-16.693-8.627-.918 1.776 16.692 8.628zm-16.693 29.713 16.693-8.627-.919-1.777-16.692 8.628zm17.234-9.515v-19.31h-2v19.31zm-35.385-19.31v19.31h2v-19.31zm.541 20.198 16.692 8.627.918-1.776-16.692-8.628z" fill="#20ba31" mask="url(#f)"/><path d="m20.6667 116.73 16.6924-8.627 16.6923 8.627v19.309l-16.6923 8.628-16.6924-8.628z" fill="#fff"/><path d="m45.7052 121.044-.2296-.444zm-25.268-3.87 16.6923 8.628.4591-.889-16.6923-8.627zm16.4219 8.184v19.309h1v-19.309zm.7295.444 8.3462-4.314-.4592-.888-8.3461 4.313zm8.3462-4.314 8.3461-4.314-.4591-.888-8.3462 4.314zm-8.5757-13.385.4591-.889-.4591-.237-.4592.237zm-16.6924 8.627-.4591-.888-.5409.279v.609zm33.3847 0h1v-.609l-.5409-.279zm-16.6923 27.937-.4592.888.4592.237.4591-.237zm16.6923-8.628.4591.889.5409-.28v-.609zm-33.3847 0h-1v.609l.5409.28zm16.2332-28.825-16.6923 8.628.9183 1.776 16.6923-8.627zm17.6106 8.628-16.6923-8.628-.9183 1.777 16.6923 8.627zm-16.6923 29.713 16.6923-8.627-.9183-1.777-16.6923 8.627zm17.2332-9.516v-19.309h-2v19.309zm-35.3847-19.309v19.309h2v-19.309zm.5409 20.198 16.6923 8.627.9183-1.777-16.6923-8.627z" fill="#20ba31" mask="url(#g)"/><path d="m124 83.3454 16.692-8.6274 16.693 8.6274v19.3096l-16.693 8.627-16.692-8.627z" fill="#fff"/><path d="m149.038 87.6592-.229-.4442zm-25.268-3.8696 16.693 8.6275.459-.8884-16.692-8.6274zm16.422 8.1833v19.3091h1v-19.3091zm.73.4442 8.346-4.3137-.459-.8884-8.346 4.3137zm8.346-4.3137 8.346-4.3138-.459-.8883-8.346 4.3137zm-8.576-13.3854.459-.8884-.459-.2373-.459.2373zm-16.692 8.6274-.459-.8883-.541.2795v.6088zm33.385 0h1v-.6088l-.541-.2795zm-16.693 27.9366-.459.888.459.238.459-.238zm16.693-8.627.459.888.541-.28v-.608zm-33.385 0h-1v.608l.541.28zm16.233-28.8254-16.692 8.6275.918 1.7767 16.692-8.6275zm17.611 8.6275-16.693-8.6275-.918 1.7767 16.692 8.6275zm-16.693 29.7129 16.693-8.627-.919-1.777-16.692 8.628zm17.234-9.515v-19.3096h-2v19.3096zm-35.385-19.3096v19.3096h2v-19.3096zm.541 20.1976 16.692 8.627.918-1.776-16.692-8.628z" fill="#20ba31" mask="url(#h)"/><path d="m20.6667 49.9608 16.6924-8.6275 16.6923 8.6275v19.3091l-16.6923 8.6275-16.6924-8.6275z" fill="#fff"/><path d="m45.7052 54.2745-.2296-.4441zm-25.268-3.8695 16.6923 8.6275.4591-.8884-16.6923-8.6275zm16.4219 8.1833v19.3091h1v-19.3091zm.7295.4442 8.3462-4.3138-.4592-.8883-8.3461 4.3137zm8.3462-4.3138 8.3461-4.3137-.4591-.8884-8.3462 4.3138zm-8.5757-13.3854.4591-.8883-.4591-.2374-.4592.2374zm-16.6924 8.6275-.4591-.8884-.5409.2796v.6088zm33.3847 0h1v-.6088l-.5409-.2796zm-16.6923 27.9366-.4592.8884.4592.2373.4591-.2373zm16.6923-8.6275.4591.8884.5409-.2796v-.6088zm-33.3847 0h-1v.6088l.5409.2796zm16.2332-28.8249-16.6923 8.6274.9183 1.7768 16.6923-8.6275zm17.6106 8.6274-16.6923-8.6274-.9183 1.7767 16.6923 8.6275zm-16.6923 29.7134 16.6923-8.6275-.9183-1.7767-16.6923 8.6275zm17.2332-9.5159v-19.3091h-2v19.3091zm-35.3847-19.3091v19.3091h2v-19.3091zm.5409 20.1975 16.6923 8.6275.9183-1.7767-16.6923-8.6275z" fill="#20ba31" mask="url(#i)"/><path d="m82.6667 150.115 16.6924-8.628 16.6919 8.628v19.309l-16.6919 8.627-16.6924-8.627z" fill="#fff"/><path d="m107.705 154.428-.229-.444zm-25.2678-3.869 16.6923 8.627.4591-.888-16.6923-8.628zm16.4219 8.183v19.309h1v-19.309zm.7295.444 8.3464-4.313-.459-.889-8.3465 4.314zm8.3464-4.313 8.346-4.314-.459-.889-8.346 4.314zm-8.5759-13.386.4591-.888-.4591-.237-.4592.237zm-16.6924 8.628-.4591-.889-.5409.28v.609zm33.3843 0h1v-.609l-.54-.28zm-16.6919 27.936-.4592.889.4592.237.4591-.237zm16.6919-8.627.46.888.54-.279v-.609zm-33.3843 0h-1v.609l.5409.279zm16.2332-28.825-16.6923 8.627.9183 1.777 16.6923-8.627zm17.6111 8.627-16.6928-8.627-.9183 1.777 16.6921 8.627zm-16.6928 29.714 16.6928-8.628-.919-1.777-16.6921 8.628zm17.2328-9.516v-19.309h-2v19.309zm-35.3843-19.309v19.309h2v-19.309zm.5409 20.197 16.6923 8.628.9183-1.777-16.6923-8.628z" fill="#20ba31" mask="url(#j)"/><path d="m41.3333 83.3454 16.6923-8.6274 16.6923 8.6274v19.3096l-16.6923 8.627-16.6923-8.627z" fill="#fff"/><path d="m66.3717 87.6592-.2296-.4442zm-25.268-3.8696 16.6923 8.6275.4591-.8884-16.6923-8.6274zm16.4219 8.1833v19.3091h1v-19.3091zm.7295.4442 8.3462-4.3137-.4592-.8884-8.3461 4.3137zm8.3462-4.3137 8.3461-4.3138-.4591-.8883-8.3462 4.3137zm-8.5757-13.3854.4591-.8884-.4591-.2373-.4592.2373zm-16.6923 8.6274-.4592-.8883-.5408.2795v.6088zm33.3846 0h1v-.6088l-.5409-.2795zm-16.6923 27.9366-.4592.888.4592.238.4591-.238zm16.6923-8.627.4591.888.5409-.28v-.608zm-33.3846 0h-1v.608l.5408.28zm16.2331-28.8254-16.6923 8.6275.9183 1.7767 16.6923-8.6275zm17.6106 8.6275-16.6923-8.6275-.9183 1.7767 16.6923 8.6275zm-16.6923 29.7129 16.6923-8.627-.9183-1.777-16.6923 8.628zm17.2332-9.515v-19.3096h-2v19.3096zm-35.3846-19.3096v19.3096h2v-19.3096zm.5408 20.1976 16.6923 8.627.9183-1.776-16.6923-8.628z" fill="#20ba31" mask="url(#k)"/><path d="m144.667 49.9608 16.692-8.6275 16.692 8.6275v19.3091l-16.692 8.6275-16.692-8.6275z" fill="#fff"/><path d="m169.705 54.2745-.229-.4441zm-25.268-3.8695 16.692 8.6275.46-.8884-16.693-8.6275zm16.422 8.1833v19.3091h1v-19.3091zm.73.4442 8.346-4.3138-.459-.8883-8.347 4.3137zm8.346-4.3138 8.346-4.3137-.459-.8884-8.346 4.3138zm-8.576-13.3854.459-.8883-.459-.2374-.459.2374zm-16.692 8.6275-.459-.8884-.541.2796v.6088zm33.384 0h1v-.6088l-.54-.2796zm-16.692 27.9366-.459.8884.459.2373.459-.2373zm16.692-8.6275.46.8884.54-.2796v-.6088zm-33.384 0h-1v.6088l.541.2796zm16.233-28.8249-16.692 8.6274.918 1.7768 16.692-8.6275zm17.611 8.6274-16.693-8.6274-.918 1.7767 16.692 8.6275zm-16.693 29.7134 16.693-8.6275-.919-1.7767-16.692 8.6275zm17.233-9.5159v-19.3091h-2v19.3091zm-35.384-19.3091v19.3091h2v-19.3091zm.541 20.1975 16.692 8.6275.918-1.7767-16.692-8.6275z" fill="#20ba31" mask="url(#l)"/><path d="m41.3333 151.704 16.6923-8.627 16.6923 8.627v19.31l-16.6923 8.627-16.6923-8.627z" fill="#fff"/><path d="m66.3717 156.018-.2296-.444zm-25.268-3.869 16.6923 8.627.4591-.888-16.6923-8.628zm16.4219 8.183v19.309h1v-19.309zm.7295.444 8.3462-4.314-.4592-.888-8.3461 4.314zm8.3462-4.314 8.3461-4.313-.4591-.889-8.3462 4.314zm-8.5757-13.385.4591-.888-.4591-.238-.4592.238zm-16.6923 8.627-.4592-.888-.5408.28v.608zm33.3846 0h1v-.608l-.5409-.28zm-16.6923 27.937-.4592.888.4592.238.4591-.238zm16.6923-8.627.4591.888.5409-.28v-.608zm-33.3846 0h-1v.608l.5408.28zm16.2331-28.825-16.6923 8.627.9183 1.777 16.6923-8.628zm17.6106 8.627-16.6923-8.627-.9183 1.776 16.6923 8.628zm-16.6923 29.713 16.6923-8.627-.9183-1.777-16.6923 8.628zm17.2332-9.515v-19.31h-2v19.31zm-35.3846-19.31v19.31h2v-19.31zm.5408 20.198 16.6923 8.627.9183-1.776-16.6923-8.628z" fill="#20ba31" mask="url(#m)"/><path d="m103.333 116.73 16.693-8.627 16.692 8.627v19.309l-16.692 8.628-16.693-8.628z" fill="#fff"/><path d="m128.372 121.044-.23-.444zm-25.268-3.87 16.692 8.628.459-.889-16.692-8.627zm16.422 8.184v19.309h1v-19.309zm.729.444 8.346-4.314-.459-.888-8.346 4.313zm8.346-4.314 8.346-4.314-.459-.888-8.346 4.314zm-8.575-13.385.459-.889-.459-.237-.46.237zm-16.693 8.627-.459-.888-.541.279v.609zm33.385 0h1v-.609l-.541-.279zm-16.692 27.937-.46.888.46.237.459-.237zm16.692-8.628.459.889.541-.28v-.609zm-33.385 0h-1v.609l.541.28zm16.233-28.825-16.692 8.628.918 1.776 16.693-8.627zm17.611 8.628-16.692-8.628-.919 1.777 16.693 8.627zm-16.692 29.713 16.692-8.627-.918-1.777-16.693 8.627zm17.233-9.516v-19.309h-2v19.309zm-35.385-19.309v19.309h2v-19.309zm.541 20.198 16.692 8.627.919-1.777-16.693-8.627z" fill="#20ba31" mask="url(#n)"/><path d="m41.3333 14.9864 16.6923-8.62745 16.6923 8.62745v19.3092l-16.6923 8.6274-16.6923-8.6274z" fill="#fff"/><path d="m66.3717 19.3002-.2296-.4442zm-25.268-3.8696 16.6923 8.6275.4591-.8884-16.6923-8.6274zm16.4219 8.1833v19.3091h1v-19.3091zm.7295.4442 8.3462-4.3137-.4592-.8884-8.3461 4.3137zm8.3462-4.3137 8.3461-4.3138-.4591-.8883-8.3462 4.3137zm-8.5757-13.38545.4591-.88836-.4591-.23731-.4592.23731zm-16.6923 8.62745-.4592-.8883-.5408.2795v.6088zm33.3846 0h1v-.6088l-.5409-.2795zm-16.6923 27.9366-.4592.8884.4592.2373.4591-.2373zm16.6923-8.6274.4591.8883.5409-.2795v-.6088zm-33.3846 0h-1v.6088l.5408.2795zm16.2331-28.82501-16.6923 8.62751.9183 1.7767 16.6923-8.62749zm17.6106 8.62751-16.6923-8.62751-.9183 1.77672 16.6923 8.62749zm-16.6923 29.7133 16.6923-8.6275-.9183-1.7767-16.6923 8.6275zm17.2332-9.5158v-19.3092h-2v19.3092zm-35.3846-19.3092v19.3092h2v-19.3092zm.5408 20.1975 16.6923 8.6275.9183-1.7767-16.6923-8.6275z" fill="#20ba31" mask="url(#o)"/><path d="m124 14.9864 16.692-8.62745 16.693 8.62745v19.3092l-16.693 8.6274-16.692-8.6274z" fill="#fff"/><path d="m149.038 19.3002-.229-.4442zm-25.268-3.8696 16.693 8.6275.459-.8884-16.692-8.6274zm16.422 8.1833v19.3091h1v-19.3091zm.73.4442 8.346-4.3137-.459-.8884-8.346 4.3137zm8.346-4.3137 8.346-4.3138-.459-.8883-8.346 4.3137zm-8.576-13.38545.459-.88836-.459-.23731-.459.23731zm-16.692 8.62745-.459-.8883-.541.2795v.6088zm33.385 0h1v-.6088l-.541-.2795zm-16.693 27.9366-.459.8884.459.2373.459-.2373zm16.693-8.6274.459.8883.541-.2795v-.6088zm-33.385 0h-1v.6088l.541.2795zm16.233-28.82501-16.692 8.62751.918 1.7767 16.692-8.62749zm17.611 8.62751-16.693-8.62751-.918 1.77672 16.692 8.62749zm-16.693 29.7133 16.693-8.6275-.919-1.7767-16.692 8.6275zm17.234-9.5158v-19.3092h-2v19.3092zm-35.385-19.3092v19.3092h2v-19.3092zm.541 20.1975 16.692 8.6275.918-1.7767-16.692-8.6275z" fill="#20ba31" mask="url(#p)"/><path d="m62 49.9608 16.6923-8.6275 16.6923 8.6275v19.3091l-16.6923 8.6275-16.6923-8.6275z" fill="#fff"/><path d="m87.0385 54.2745-.2296-.4441zm-25.2681-3.8695 16.6923 8.6275.4592-.8884-16.6923-8.6275zm16.4219 8.1833v19.3091h1v-19.3091zm.7296.4442 8.3461-4.3138-.4591-.8883-8.3462 4.3137zm8.3461-4.3138 8.3462-4.3137-.4592-.8884-8.3461 4.3138zm-8.5757-13.3854.4592-.8883-.4592-.2374-.4591.2374zm-16.6923 8.6275-.4592-.8884-.5408.2796v.6088zm33.3846 0h1v-.6088l-.5408-.2796zm-16.6923 27.9366-.4591.8884.4591.2373.4592-.2373zm16.6923-8.6275.4592.8884.5408-.2796v-.6088zm-33.3846 0h-1v.6088l.5408.2796zm16.2332-28.8249-16.6924 8.6274.9184 1.7768 16.6923-8.6275zm17.6106 8.6274-16.6923-8.6274-.9183 1.7767 16.6923 8.6275zm-16.6923 29.7134 16.6923-8.6275-.9183-1.7767-16.6923 8.6275zm17.2331-9.5159v-19.3091h-2v19.3091zm-35.3846-19.3091v19.3091h2v-19.3091zm.5408 20.1975 16.6924 8.6275.9183-1.7767-16.6923-8.6275z" fill="#20ba31" mask="url(#q)"/><path d="m144.667 116.73 16.692-8.627 16.692 8.627v19.309l-16.692 8.628-16.692-8.628z" fill="#fff"/><path d="m169.705 121.044-.229-.444zm-25.268-3.87 16.692 8.628.46-.889-16.693-8.627zm16.422 8.184v19.309h1v-19.309zm.73.444 8.346-4.314-.459-.888-8.347 4.313zm8.346-4.314 8.346-4.314-.459-.888-8.346 4.314zm-8.576-13.385.459-.889-.459-.237-.459.237zm-16.692 8.627-.459-.888-.541.279v.609zm33.384 0h1v-.609l-.54-.279zm-16.692 27.937-.459.888.459.237.459-.237zm16.692-8.628.46.889.54-.28v-.609zm-33.384 0h-1v.609l.541.28zm16.233-28.825-16.692 8.628.918 1.776 16.692-8.627zm17.611 8.628-16.693-8.628-.918 1.777 16.692 8.627zm-16.693 29.713 16.693-8.627-.919-1.777-16.692 8.627zm17.233-9.516v-19.309h-2v19.309zm-35.384-19.309v19.309h2v-19.309zm.541 20.198 16.692 8.627.918-1.777-16.692-8.627z" fill="#20ba31" mask="url(#r)"/><path d="m0 83.3454 16.6923-8.6274 16.6923 8.6274v19.3096l-16.6923 8.627-16.6923-8.627z" fill="#fff"/><path d="m25.0385 87.6592-.2296-.4442zm-25.268076-3.8696 16.692276 8.6275.4592-.8884-16.692324-8.6274zm16.421876 8.1833v19.3091h1v-19.3091zm.7296.4442 8.3461-4.3137-.4591-.8884-8.3462 4.3137zm8.3461-4.3137 8.3462-4.3138-.4592-.8883-8.3461 4.3137zm-8.5757-13.3854.4592-.8884-.4592-.2373-.4591.2373zm-16.6923 8.6274-.459151-.8883-.540849.2795v.6088zm33.3846 0h1v-.6088l-.5408-.2795zm-16.6923 27.9366-.4591.888.4591.238.4592-.238zm16.6923-8.627.4592.888.5408-.28v-.608zm-33.3846 0h-1v.608l.540849.28zm16.2332-28.8254-16.692351 8.6275.918302 1.7767 16.692349-8.6275zm17.6106 8.6275-16.6923-8.6275-.9183 1.7767 16.6923 8.6275zm-16.6923 29.7129 16.6923-8.627-.9183-1.777-16.6923 8.628zm17.2331-9.515v-19.3096h-2v19.3096zm-35.3846-19.3096v19.3096h2v-19.3096zm.540849 20.1976 16.692351 8.627.9183-1.776-16.692349-8.628z" fill="#20ba31" mask="url(#s)"/><path d="m82.6667 83.3454 16.6924-8.6274 16.6919 8.6274v19.3096l-16.6919 8.627-16.6924-8.627z" fill="#20ba31"/><path d="m107.705 87.6592-.229-.4442zm-25.2678-3.8696 16.6923 8.6275.4591-.8884-16.6923-8.6274zm16.4219 8.1833v19.3091h1v-19.3091zm.7295.4442 8.3464-4.3137-.459-.8884-8.3465 4.3137zm8.3464-4.3137 8.346-4.3138-.459-.8883-8.346 4.3137zm-8.5759-13.3854.4591-.8884-.4591-.2373-.4592.2373zm-16.6924 8.6274-.4591-.8883-.5409.2795v.6088zm33.3843 0h1v-.6088l-.54-.2795zm-16.6919 27.9366-.4592.888.4592.238.4591-.238zm16.6919-8.627.46.888.54-.28v-.608zm-33.3843 0h-1v.608l.5409.28zm16.2332-28.8254-16.6923 8.6275.9183 1.7767 16.6923-8.6275zm17.6111 8.6275-16.6928-8.6275-.9183 1.7767 16.6921 8.6275zm-16.6928 29.7129 16.6928-8.627-.919-1.777-16.6921 8.628zm17.2328-9.515v-19.3096h-2v19.3096zm-35.3843-19.3096v19.3096h2v-19.3096zm.5409 20.1976 16.6923 8.627.9183-1.776-16.6923-8.628z" fill="#fff" mask="url(#t)"/></svg>