<svg width="48" height="47" viewBox="0 0 48 47" fill="none" xmlns="http://www.w3.org/2000/svg">
<path d="M22.4517 19.0858L22.7483 13.8463C22.3943 13.8893 22.0389 13.9492 21.6834 14.0299C19.737 14.4718 18.0482 15.4313 16.7278 16.7297L21.0239 19.7752L21.0324 19.7709C21.178 19.8772 21.357 19.9395 21.551 19.9395C22.0247 19.9395 22.4104 19.5652 22.4303 19.0965L22.4517 19.0858Z" class="fillStd"/>
<path d="M31.236 16.7318C29.6256 15.1548 27.5241 14.1258 25.2517 13.8463L25.5484 19.0773L25.5526 19.0794C25.5603 19.2595 25.6237 19.4378 25.7447 19.5895C26.04 19.9597 26.5738 20.0284 26.9527 19.7517L26.9676 19.7581L31.236 16.7318Z" class="fillStd"/>
<path d="M19.0925 22.1954L15.1698 18.6867C14.0057 20.5833 13.4541 22.8581 13.7101 25.1982L18.7382 23.7469L18.7425 23.7298C18.9163 23.6823 19.0782 23.5806 19.1992 23.4289C19.4945 23.0586 19.4423 22.5245 19.0882 22.2167L19.0925 22.1954Z" class="fillStd"/>
<path d="M34.0872 21.8325C33.8245 20.6887 33.3831 19.6335 32.8003 18.6889L28.899 22.1804L28.9012 22.1911C28.7652 22.3093 28.6647 22.4693 28.6216 22.6585C28.5162 23.1202 28.7944 23.5805 29.2469 23.7042L29.2512 23.7256L34.3049 25.1811C34.412 24.0908 34.3468 22.9627 34.0872 21.8325Z" class="fillStd"/>
<path d="M24.8014 22.4664H23.1944L22.1934 23.7128L22.552 25.2707L23.9989 25.9665L25.4417 25.2729L25.8002 23.7149L24.8014 22.4664Z" class="fillStd"/>
<path d="M28.549 26.754C28.4826 26.7418 28.4146 26.7356 28.3463 26.7391C28.2325 26.7448 28.1183 26.774 28.0091 26.8266C27.5824 27.0321 27.3968 27.5374 27.5822 27.9684L27.5758 27.9769L29.5948 32.8536C31.5409 31.6138 32.9974 29.7611 33.7586 27.6226L28.5576 26.7433L28.549 26.754Z" class="fillStd"/>
<path d="M20.4562 27.4455C20.364 27.0415 20.008 26.766 19.6111 26.7604C19.5544 26.7596 19.4959 26.7647 19.4382 26.7754L19.4297 26.7647L14.2735 27.6397C15.0692 29.8414 16.5568 31.6359 18.4245 32.8344L20.4221 28.0068L20.4071 27.9876C20.4784 27.8221 20.4994 27.6346 20.4562 27.4455Z" class="fillStd"/>
<path d="M24.3788 28.9629C24.2455 28.8987 24.1052 28.8703 23.9669 28.8754C23.6628 28.8866 23.3742 29.0563 23.2221 29.3407H23.2178L20.6824 33.9249C22.4371 34.5228 24.3749 34.6566 26.3188 34.2152C26.6657 34.1364 27.0048 34.0419 27.3347 33.9313L24.7929 29.3385H24.7737C24.6887 29.1796 24.5536 29.0471 24.3788 28.9629Z" class="fillStd"/>
<path fill-rule="evenodd" clip-rule="evenodd" d="M22.6107 0.313565C22.9935 0.130692 23.4093 0.0254815 23.8336 0.00410532C24.3674 -0.0228831 24.8994 0.0835254 25.3809 0.313565L42.0702 8.28269C42.5021 8.48895 42.8816 8.78908 43.1805 9.16077C43.4794 9.53247 43.69 9.96618 43.7967 10.4297L47.92 28.3399C48.0267 28.8037 48.0267 29.2853 47.9199 29.749C47.8131 30.2127 47.6023 30.6466 47.3032 31.0184L35.7573 45.3816C35.4581 45.7528 35.0785 46.0524 34.6466 46.2582C34.2147 46.464 33.7416 46.5707 33.2624 46.5703L14.7399 46.5746C14.2605 46.5747 13.7873 46.4677 13.3554 46.2615C12.9235 46.0553 12.544 45.7553 12.245 45.3837L0.694815 31.0226C0.630242 30.9417 0.569701 30.8576 0.513409 30.7708C0.281257 30.4156 0.123299 30.0179 0.0488834 29.6011C-0.0255322 29.1842 -0.0148932 28.7569 0.0801705 28.3442L4.19701 10.434C4.30372 9.97045 4.51435 9.53674 4.81326 9.16504C5.11216 8.79335 5.49166 8.49322 5.92356 8.28695L22.6107 0.313565ZM23.0002 7.20897C23.0001 6.59609 23.4473 6.09924 23.9989 6.09918C24.5506 6.09912 24.9977 6.59609 24.9977 7.20897C24.9979 7.23981 24.9985 7.27441 24.9992 7.30979C25.0005 7.37408 25.0018 7.44099 24.9999 7.49282C24.9912 7.72601 24.9547 7.92311 24.9176 8.12376C24.8984 8.22726 24.8791 8.33171 24.8633 8.44254L24.8569 8.49557C24.7757 9.169 24.7078 9.73109 24.7502 10.2545C24.7842 10.4864 24.9059 10.5973 25.0221 10.7033C25.0406 10.7201 25.0589 10.7368 25.0767 10.7539C25.0797 10.8263 25.0913 11.0668 25.1002 11.1999C28.2759 11.482 31.2253 12.9343 33.3915 15.2058L33.7714 14.9348C33.7866 14.9357 33.8041 14.937 33.8234 14.9385C33.9662 14.9495 34.2068 14.968 34.3775 14.8686C34.8137 14.575 35.2119 14.1704 35.6887 13.686L35.7241 13.65C35.7994 13.5702 35.868 13.4916 35.9359 13.4138C36.0717 13.2584 36.2049 13.1059 36.3836 12.9521C36.4278 12.9141 36.4883 12.8668 36.5442 12.8231C36.5657 12.8063 36.5866 12.79 36.6055 12.775C37.0847 12.3928 37.7512 12.4334 38.0952 12.8646C38.4392 13.2958 38.3289 13.955 37.8498 14.3372C37.8273 14.3553 37.8025 14.3757 37.7772 14.3967C37.7263 14.4386 37.6729 14.4827 37.63 14.5144C37.4438 14.6518 37.2672 14.7454 37.088 14.8404C36.9932 14.8906 36.8978 14.9411 36.7998 14.9988C36.2027 15.3676 35.707 15.6738 35.3144 16.0424C35.1537 16.2143 35.1426 16.3783 35.132 16.5356C35.1304 16.5599 35.1287 16.584 35.1266 16.608C35.0999 16.6325 35.0408 16.6853 34.9751 16.744C34.9043 16.8072 34.826 16.8772 34.7723 16.926C35.6332 18.2074 36.2787 19.6618 36.644 21.252C37.0059 22.8276 37.0622 24.4022 36.8531 25.9153L37.2565 26.0327C37.265 26.0447 37.2745 26.0587 37.2851 26.0743C37.3647 26.1914 37.5026 26.3941 37.6876 26.4659C38.1964 26.6261 38.7683 26.686 39.4572 26.7582L39.4782 26.7604C39.591 26.7698 39.6984 26.774 39.8051 26.7782C40.0083 26.7862 40.2084 26.7941 40.4364 26.8372C40.4883 26.8471 40.5551 26.8637 40.6189 26.8795C40.6572 26.889 40.6945 26.8982 40.7267 26.9055C41.3154 27.0476 41.6934 27.5889 41.5718 28.122C41.4501 28.6553 40.875 28.9794 40.2827 28.8519C40.2806 28.8515 40.278 28.8512 40.2754 28.8509C40.2727 28.8506 40.27 28.8503 40.2678 28.8498C40.2648 28.8491 40.2619 28.8481 40.259 28.847C40.2556 28.8457 40.2522 28.8443 40.2486 28.8434C40.2188 28.8369 40.1862 28.8303 40.1534 28.8237C40.0954 28.8121 40.0365 28.8003 39.9904 28.7879C39.7657 28.7278 39.5818 28.6482 39.3949 28.5672C39.2975 28.525 39.1993 28.4825 39.094 28.4422L39.0637 28.4313C38.4163 28.1991 37.8776 28.0059 37.3525 27.93C37.1188 27.9116 36.984 28.0053 36.8549 28.095C36.8343 28.1092 36.814 28.1234 36.7934 28.137C36.7204 28.1223 36.4958 28.0826 36.3665 28.0623C35.4095 31.0701 33.3715 33.6744 30.6085 35.3058C30.6238 35.3427 30.6425 35.393 30.6622 35.4457C30.7037 35.5573 30.7493 35.6797 30.775 35.7091C30.7662 35.7324 30.7569 35.7556 30.7475 35.7788C30.689 35.9241 30.6283 36.0747 30.6981 36.2982C30.892 36.8009 31.2057 37.2923 31.5838 37.8839C31.6464 37.9774 31.7096 38.0634 31.7721 38.1488C31.8925 38.3129 32.0108 38.4742 32.1195 38.68C32.147 38.732 32.1807 38.8034 32.2115 38.8686C32.2251 38.8973 32.238 38.9247 32.2497 38.9489C32.5065 39.4981 32.318 40.1306 31.825 40.3681C31.328 40.6075 30.7102 40.3547 30.4442 39.8026C30.4328 39.7791 30.42 39.7533 30.4068 39.7267C30.376 39.6646 30.343 39.5982 30.3204 39.5464C30.2266 39.3316 30.1734 39.1372 30.1192 38.9392C30.0916 38.8384 30.0637 38.7367 30.0301 38.6309L30.0208 38.6036C29.7983 37.9513 29.6135 37.4099 29.3451 36.9513C29.2131 36.7561 29.0551 36.7086 28.9038 36.6631C28.8807 36.6561 28.8577 36.6492 28.835 36.6418C28.8186 36.6136 28.7791 36.5419 28.7359 36.4637C28.6957 36.3907 28.6523 36.3121 28.6216 36.2576C28.0698 36.4661 27.499 36.6399 26.9078 36.7741C24.3162 37.3626 21.7218 37.1238 19.4041 36.2342L19.1778 36.6439C19.0094 36.689 18.847 36.7347 18.7474 36.8536C18.4918 37.1586 18.344 37.5932 18.1871 38.0551C18.1207 38.2504 18.0527 38.4506 17.9741 38.6479C17.94 38.7555 17.912 38.8589 17.8843 38.9613C17.8312 39.1576 17.779 39.3505 17.686 39.5635C17.6646 39.6126 17.6334 39.6748 17.6038 39.734C17.5891 39.7632 17.5748 39.7917 17.5623 39.8175C17.5621 39.8178 17.5622 39.8183 17.5623 39.8187C17.5623 39.819 17.5624 39.8184 17.5623 39.8187C17.5619 39.8195 17.5605 39.821 17.5601 39.8218C17.2936 40.3721 16.6776 40.6241 16.1814 40.3852C15.6883 40.1478 15.5 39.5152 15.7567 38.9659C15.7706 38.9373 15.786 38.9039 15.8019 38.8694C15.83 38.8088 15.8596 38.7447 15.8848 38.697C15.9941 38.4902 16.113 38.3273 16.234 38.1617C16.296 38.0769 16.3585 37.9914 16.4205 37.8988C16.7986 37.3073 17.1307 36.7766 17.3245 36.2739C17.3732 36.1069 17.3011 35.8782 17.2357 35.7091L17.4171 35.2738C14.7585 33.6984 12.6589 31.1877 11.657 28.0815L11.2216 28.1562C11.2084 28.1488 11.1937 28.1403 11.1776 28.1309C11.0519 28.058 10.845 27.938 10.6475 27.9534C10.122 28.0295 9.58273 28.2229 8.93464 28.4554L8.90602 28.4656C8.80251 28.5053 8.70578 28.5469 8.60995 28.588C8.42136 28.6691 8.23622 28.7486 8.00966 28.8093C7.95849 28.823 7.89164 28.8371 7.82765 28.8506C7.80133 28.8561 7.77549 28.8616 7.75142 28.8669C7.7482 28.8677 7.74516 28.8688 7.74211 28.87C7.73889 28.8712 7.73566 28.8725 7.73222 28.8733C7.72999 28.8738 7.72733 28.8741 7.7247 28.8743C7.72205 28.8746 7.71942 28.8749 7.71728 28.8754C7.12504 29.0031 6.55001 28.6788 6.42823 28.1455C6.30648 27.6124 6.68467 27.0713 7.27337 26.929C7.27775 26.928 7.28374 26.9258 7.28831 26.9247C7.28953 26.9245 7.29071 26.9242 7.29189 26.9238C7.29353 26.9234 7.29515 26.923 7.29684 26.9226C7.32201 26.9167 7.34924 26.9101 7.3771 26.9033C7.44191 26.8875 7.51012 26.8709 7.56362 26.8607C7.79154 26.8175 7.99164 26.8097 8.19485 26.8017C8.30151 26.7975 8.40902 26.7933 8.52186 26.7839L8.54448 26.7815C9.23264 26.7094 9.80408 26.6495 10.3124 26.4894C10.4565 26.4302 10.595 26.2482 10.7014 26.1085C10.7153 26.0902 10.7287 26.0726 10.7414 26.0561L11.1597 25.9345C10.691 22.6886 11.4841 19.5029 13.1979 16.9239L12.8777 16.6379C12.8755 16.6242 12.8732 16.6086 12.8706 16.5915C12.8499 16.4517 12.8137 16.2073 12.6771 16.0616C12.2843 15.6928 11.7891 15.3869 11.1917 15.018C11.0945 14.9608 11 14.9106 10.9064 14.8608C10.727 14.7654 10.5506 14.6716 10.3637 14.5336C10.3204 14.5016 10.2668 14.4575 10.2157 14.4154C10.1953 14.3987 10.1754 14.3823 10.1566 14.3671C10.1543 14.3653 10.1519 14.3637 10.1496 14.3621C10.1469 14.3603 10.1443 14.3585 10.1417 14.3564C9.6625 13.9743 9.5524 13.3151 9.89628 12.8838C10.0897 12.6412 10.3853 12.5212 10.6923 12.5317C10.9311 12.5399 11.1784 12.627 11.3881 12.7942C11.4065 12.8088 11.4268 12.8246 11.4478 12.841C11.5042 12.8851 11.5656 12.9331 11.61 12.9713C11.7874 13.1239 11.919 13.2753 12.0531 13.4296C12.1217 13.5085 12.191 13.5882 12.2674 13.6692L12.2849 13.687C12.7696 14.1793 13.1724 14.5884 13.614 14.8857C13.8176 15.0043 13.9802 14.9786 14.1361 14.954C14.16 14.9503 14.1837 14.9465 14.2073 14.9433C14.2647 14.9857 14.4577 15.1242 14.568 15.1994C16.268 13.3957 18.5009 12.0598 21.0943 11.471C21.697 11.3341 22.3004 11.2432 22.8998 11.1935L22.9233 10.771C23.0563 10.6422 23.2055 10.457 23.2477 10.2545C23.2909 9.72112 23.2217 9.14757 23.1385 8.45695L23.1367 8.44254C23.121 8.33171 23.1016 8.22726 23.0825 8.12376C23.0453 7.92311 23.0088 7.72601 23.0002 7.49282C22.9983 7.44331 22.9996 7.38083 23.0009 7.31966C23.0014 7.29125 23.002 7.26312 23.0023 7.23671C23.0022 7.2323 23.0017 7.22797 23.0012 7.22364C23.0007 7.21879 23.0002 7.21394 23.0002 7.20897Z" class="fillStd"/>
</svg>
