<svg width="128" height="141" viewBox="0 0 128 141" fill="none" xmlns="http://www.w3.org/2000/svg">
<path opacity="0.2" d="M23.5954 1.23933L2.69612 14.026C1.02226 15.051 0.00106667 16.8741 0.00106667 18.8409L0 136.838C0 139.026 1.7695 140.8 3.95255 140.8H100.008C101.559 140.8 103.081 140.371 104.405 139.561L125.304 126.773C126.978 125.749 127.999 123.925 127.999 121.959L128 3.96191C128 1.77369 126.23 0 124.047 0H27.9924C26.4409 0 24.9204 0.428619 23.5954 1.23933Z" fill="#00B7C2"/>
<mask id="path-2-inside-1" fill="white">
<path fill-rule="evenodd" clip-rule="evenodd" d="M26.1864 30.4013C25.0818 30.3978 24.1836 31.2904 24.1801 32.395L24.0013 89.7043C23.9978 90.8089 24.8904 91.7071 25.995 91.7106L102.463 91.9492C103.568 91.9527 104.466 91.0601 104.47 89.9555L104.649 32.6462C104.652 31.5416 103.759 30.6434 102.655 30.6399L26.1864 30.4013ZM54.5932 98.5276C53.596 98.5245 52.7489 99.2564 52.6072 100.243L51.4402 108.374C51.2676 109.576 52.1986 110.654 53.4137 110.658L76.4867 110.73C77.7018 110.734 78.6395 109.662 78.4744 108.458L77.3582 100.321C77.2227 99.3328 76.3802 98.5956 75.383 98.5925L54.5932 98.5276Z"/>
</mask>
<path fill-rule="evenodd" clip-rule="evenodd" d="M26.1864 30.4013C25.0818 30.3978 24.1836 31.2904 24.1801 32.395L24.0013 89.7043C23.9978 90.8089 24.8904 91.7071 25.995 91.7106L102.463 91.9492C103.568 91.9527 104.466 91.0601 104.47 89.9555L104.649 32.6462C104.652 31.5416 103.759 30.6434 102.655 30.6399L26.1864 30.4013ZM54.5932 98.5276C53.596 98.5245 52.7489 99.2564 52.6072 100.243L51.4402 108.374C51.2676 109.576 52.1986 110.654 53.4137 110.658L76.4867 110.73C77.7018 110.734 78.6395 109.662 78.4744 108.458L77.3582 100.321C77.2227 99.3328 76.3802 98.5956 75.383 98.5925L54.5932 98.5276Z" fill="#00B7C2"/>
<path d="M24.1801 32.395L24.0332 32.3945L24.1801 32.395ZM26.1864 30.4013L26.1868 30.2543L26.1864 30.4013ZM24.0013 89.7043L23.8544 89.7039L24.0013 89.7043ZM25.995 91.7106L25.9946 91.8575H25.9946L25.995 91.7106ZM102.463 91.9492L102.464 91.8023L102.463 91.9492ZM104.47 89.9555L104.617 89.956L104.47 89.9555ZM104.649 32.6462L104.502 32.6457V32.6457L104.649 32.6462ZM102.655 30.6399L102.654 30.7868L102.655 30.6399ZM52.6072 100.243L52.4618 100.223L52.6072 100.243ZM54.5932 98.5276L54.5927 98.6745L54.5932 98.5276ZM51.4402 108.374L51.2948 108.353L51.4402 108.374ZM53.4137 110.658L53.4142 110.511L53.4137 110.658ZM76.4867 110.73L76.4863 110.877L76.4867 110.73ZM78.4744 108.458L78.62 108.438L78.4744 108.458ZM77.3582 100.321L77.5038 100.301L77.3582 100.321ZM75.383 98.5925L75.3835 98.4456L75.383 98.5925ZM24.327 32.3955C24.3302 31.372 25.1625 30.545 26.1859 30.5482L26.1868 30.2543C25.0011 30.2506 24.0369 31.2088 24.0332 32.3945L24.327 32.3955ZM24.1482 89.7048L24.327 32.3955L24.0332 32.3945L23.8544 89.7039L24.1482 89.7048ZM25.9955 91.5637C24.972 91.5605 24.145 90.7282 24.1482 89.7048L23.8544 89.7039C23.8506 90.8896 24.8089 91.8538 25.9946 91.8575L25.9955 91.5637ZM102.464 91.8023L25.9955 91.5637L25.9946 91.8575L102.463 92.0962L102.464 91.8023ZM104.323 89.955C104.32 90.9785 103.487 91.8055 102.464 91.8023L102.463 92.0962C103.649 92.0999 104.613 91.1417 104.617 89.956L104.323 89.955ZM104.502 32.6457L104.323 89.955L104.617 89.956L104.796 32.6466L104.502 32.6457ZM102.654 30.7868C103.678 30.79 104.505 31.6223 104.502 32.6457L104.796 32.6466C104.799 31.4609 103.841 30.4967 102.655 30.493L102.654 30.7868ZM26.1859 30.5482L102.654 30.7868L102.655 30.493L26.1868 30.2543L26.1859 30.5482ZM52.7526 100.264C52.8839 99.3498 53.6688 98.6716 54.5927 98.6745L54.5936 98.3807C53.5232 98.3773 52.6139 99.163 52.4618 100.223L52.7526 100.264ZM51.5857 108.395L52.7526 100.264L52.4618 100.223L51.2948 108.353L51.5857 108.395ZM53.4142 110.511C52.2883 110.507 51.4257 109.509 51.5857 108.395L51.2948 108.353C51.1095 109.644 52.1089 110.801 53.4133 110.805L53.4142 110.511ZM76.4872 110.583L53.4142 110.511L53.4133 110.805L76.4863 110.877L76.4872 110.583ZM78.3289 108.478C78.4819 109.593 77.613 110.586 76.4872 110.583L76.4863 110.877C77.7906 110.881 78.7972 109.73 78.62 108.438L78.3289 108.478ZM77.2127 100.341L78.3289 108.478L78.62 108.438L77.5038 100.301L77.2127 100.341ZM75.3825 98.7394C76.3065 98.7423 77.0871 99.4253 77.2127 100.341L77.5038 100.301C77.3583 99.2402 76.4539 98.4489 75.3835 98.4456L75.3825 98.7394ZM54.5927 98.6745L75.3825 98.7394L75.3835 98.4456L54.5936 98.3807L54.5927 98.6745Z" fill="#00B7C2" mask="url(#path-2-inside-1)"/>
<path d="M53.6606 70.0077C53.0726 70.5953 52.1189 70.5926 51.5342 70.0018L44.5982 62.9938C44.2235 62.615 44.0139 62.1023 44.0155 61.5684C44.0172 61.0345 44.23 60.5231 44.6071 60.1466L51.5874 53.1813C52.1755 52.5945 53.1286 52.5974 53.7131 53.188L54.4294 53.9117C55.0104 54.4988 55.0075 55.4452 54.4228 56.0287L49.9154 60.5263C49.3307 61.1098 49.3278 62.0562 49.9088 62.6433L54.3887 67.1697C54.9695 67.7565 54.9669 68.7023 54.3829 69.2859L53.6606 70.0077ZM76.5534 70.0807C75.9653 70.6675 75.0122 70.6646 74.4278 70.074L73.7112 69.35C73.1302 68.763 73.133 67.8168 73.7175 67.2333L78.2261 62.7317C78.8105 62.1481 78.8133 61.202 78.2324 60.615L73.7529 56.089C73.1718 55.5019 73.1748 54.5555 73.7595 53.972L74.4803 53.2528C75.0684 52.6659 76.0215 52.6689 76.6059 53.2594L83.5426 60.2682C83.9174 60.6469 84.127 61.1597 84.1253 61.6936C84.1237 62.2275 83.9109 62.7389 83.5338 63.1153L76.5534 70.0807ZM59.5357 73.5316C58.7526 73.2663 58.3319 72.4173 58.5951 71.6335L65.7448 50.3403C66.0091 49.5533 66.8624 49.1306 67.6487 49.3973L68.606 49.7221C69.3887 49.9876 69.8092 50.8362 69.5462 51.6198L62.3998 72.9138C62.1357 73.7008 61.2825 74.1236 60.4963 73.8572L59.5357 73.5316Z" fill="white"/>
</svg>
