<svg width="24" height="21" viewBox="0 0 24 21" fill="none" xmlns="http://www.w3.org/2000/svg">
<path fill-rule="evenodd" clip-rule="evenodd" d="M23.9222 3.68495C23.9237 3.68631 23.9251 3.68765 23.9266 3.68886C23.9615 3.71618 23.9729 3.76443 23.9489 3.80358L16.6732 15.5377L11.4425 7.10164L15.6105 0.378969C15.76 0.138159 16.0359 0 16.3132 0C16.3801 0 16.4469 0.0102424 16.5122 0.0268579C16.5643 0.0400592 16.6157 0.0564471 16.6645 0.0808013L23.9044 3.67361L23.9126 3.67771C23.9164 3.67953 23.9194 3.68226 23.9222 3.68495ZM9.1467 13.2227V5.57028L15.9999 16.6237L9.1467 13.2227ZM17.0296 17.1347L22.6708 19.934C23.4049 20.2984 24 20.0433 24 19.3645V5.89258L17.0296 17.1347ZM0.88612 0.190762L7.95696 3.69982C7.98334 3.71279 8.00008 3.73965 8.00008 3.76878V19.3646C8.00008 19.8635 7.72855 20.1607 7.34145 20.1607C7.20408 20.1607 7.05204 20.1232 6.89243 20.044L0.66459 16.9535C0.299043 16.7721 0 16.2918 0 15.8862V0.734294C0 0.335294 0.217173 0.0974426 0.526764 0.0974426C0.636841 0.0974426 0.758385 0.127487 0.88612 0.190762Z" fill="#9A9A9A"/>
</svg>
