<svg width="40" height="40" viewBox="0 0 40 40" fill="none" xmlns="http://www.w3.org/2000/svg">
<path d="M1.92563 9.95101L16.8583 0.879266C17.805 0.304092 18.8915 0 20 0H37.1759C38.7357 0 40 1.25838 40 2.81085V26.633C40 28.0284 39.2704 29.3218 38.0744 30.049L23.1417 39.1207C22.195 39.6959 21.1085 40 20 40H2.82412C1.26432 40 0 38.7416 0 37.1891V13.367C0 11.9716 0.729648 10.6782 1.92563 9.95101Z"/>
<path fill-rule="evenodd" clip-rule="evenodd" d="M8 14C8 13.1716 8.67157 12.5 9.5 12.5H30.5C31.3284 12.5 32 13.1716 32 14C32 14.8284 31.3284 15.5 30.5 15.5H9.5C8.67157 15.5 8 14.8284 8 14ZM8 20C8 19.1716 8.67157 18.5 9.5 18.5H30.5C31.3284 18.5 32 19.1716 32 20C32 20.8284 31.3284 21.5 30.5 21.5H9.5C8.67157 21.5 8 20.8284 8 20ZM9.5 24.5C8.67157 24.5 8 25.1716 8 26C8 26.8284 8.67157 27.5 9.5 27.5H30.5C31.3284 27.5 32 26.8284 32 26C32 25.1716 31.3284 24.5 30.5 24.5H9.5Z" fill="white"/>
</svg>
