<?xml version="1.0" encoding="utf-8"?>
<!-- Generator: Adobe Illustrator 26.2.1, SVG Export Plug-In . SVG Version: 6.00 Build 0)  -->
<svg version="1.1" id="Capa_1" xmlns="http://www.w3.org/2000/svg" xmlns:xlink="http://www.w3.org/1999/xlink" x="0px" y="0px"
	 viewBox="0 0 164.5 141.75" style="enable-background:new 0 0 164.5 141.75;" xml:space="preserve">
<style type="text/css">
	.st0{fill-rule:evenodd;clip-rule:evenodd;fill:#066DA5;}
</style>
<path class="st0" d="M157.32,57.2c-3.44-2.3-11.34-3.14-17.42-2c-0.78-5.73-3.97-10.69-9.78-15.18l-3.34-2.23l-2.23,3.34
	c-2.85,4.3-4.27,10.26-3.81,15.97c0.21,2.01,0.87,5.6,2.94,8.76c-2.07,1.11-6.15,2.64-11.53,2.54H8.62l-0.2,1.19
	c-0.97,5.74-0.95,23.65,10.68,37.42c8.84,10.46,22.09,15.77,39.39,15.77c37.5,0,65.24-17.26,78.24-48.64
	c5.11,0.1,16.11,0.03,21.76-10.77c0.15-0.25,0.49-0.9,1.47-2.94l0.54-1.12L157.32,57.2z M75.66,31.2h15.74V16.89H75.66V31.2z
	 M75.66,48.37h15.74V34.06H75.66V48.37z M57.06,48.37H72.8V34.06H57.06V48.37z M38.45,48.37H54.2V34.06H38.45V48.37z M19.85,65.55
	h15.74V51.24H19.85V65.55z M38.45,65.55H54.2V51.24H38.45V65.55z M57.06,65.55H72.8V51.24H57.06V65.55z M75.66,65.55h15.74V51.24
	H75.66V65.55z M94.27,65.55h15.74V51.24H94.27V65.55z"/>
</svg>
