<svg width="128" height="141" viewBox="0 0 128 141" fill="none" xmlns="http://www.w3.org/2000/svg">
<path opacity="0.2" d="M23.5954 1.23933L2.69612 14.026C1.02226 15.051 0.00106667 16.8741 0.00106667 18.8409L0 136.838C0 139.026 1.7695 140.8 3.95255 140.8H100.008C101.559 140.8 103.081 140.371 104.405 139.561L125.304 126.773C126.978 125.749 127.999 123.925 127.999 121.959L128 3.96191C128 1.77369 126.23 0 124.047 0H27.9924C26.4409 0 24.9204 0.428619 23.5954 1.23933Z" fill="#00B7C2"/>
<path fill-rule="evenodd" clip-rule="evenodd" d="M48.2398 40.2355C52.4913 35.9869 58.2574 33.6 64.2699 33.6C70.2823 33.6 76.0485 35.9869 80.2999 40.2355C84.5514 44.4842 86.9398 50.2466 86.9398 56.255C86.9439 61.9829 84.7467 67.4937 80.8019 71.6491C77.9685 74.6464 76.1632 78.5034 75.7146 82.5777C75.5937 83.6756 74.7094 84.5738 73.6048 84.5738H54.9248C53.8242 84.5738 52.9414 83.6819 52.8203 82.588C52.3679 78.5033 50.5931 74.6565 47.7379 71.6491C43.9406 67.6222 41.6 62.2303 41.6 56.255C41.6 50.2466 43.9884 44.4842 48.2398 40.2355ZM52.9349 95.3893C52.9349 96.8914 53.532 98.332 54.5949 99.3942C55.1805 99.9794 55.8811 100.423 56.6436 100.704C57.6801 101.086 58.5699 101.975 58.9521 103.012C59.233 103.773 59.677 104.473 60.2624 105.058C61.3252 106.12 62.7668 106.717 64.2699 106.717C65.773 106.717 67.2145 106.12 68.2774 105.058C68.8627 104.473 69.3068 103.773 69.5877 103.012C69.9699 101.975 70.8596 101.086 71.8962 100.704C72.6587 100.423 73.3592 99.9794 73.9449 99.3942C75.0077 98.332 75.6048 96.8914 75.6048 95.3893V91.7256C75.6048 90.621 74.7094 89.7256 73.6048 89.7256H54.9349C53.8303 89.7256 52.9349 90.621 52.9349 91.7256V95.3893Z" fill="#00B7C2"/>
<path d="M62.0306 70.1236C61.6435 70.6075 60.8661 70.2604 60.968 69.6491L62.1671 62.4541C62.2282 62.0876 61.9456 61.754 61.574 61.754H55.0579C54.5537 61.754 54.2734 61.1708 54.5884 60.777L65.9278 46.6028C66.3149 46.1189 67.0924 46.466 66.9905 47.0772L65.7913 54.2722C65.7302 54.6387 66.0129 54.9724 66.3844 54.9724H72.9005C73.4047 54.9724 73.685 55.5556 73.3701 55.9493L62.0306 70.1236Z" fill="white"/>
</svg>
