<svg fill="none" height="40" viewBox="0 0 40 40" width="40" xmlns="http://www.w3.org/2000/svg"><path d="m8.40357 25.2768c0 2.3125-1.88928 4.2018-4.20178 4.2018s-4.20179-1.8893-4.20179-4.2018 1.88929-4.2018 4.20179-4.2018h4.20178zm2.11783 0c0-2.3125 1.8893-4.2018 4.2018-4.2018s4.2018 1.8893 4.2018 4.2018v10.5214c0 2.3125-1.8893 4.2018-4.2018 4.2018s-4.2018-1.8893-4.2018-4.2018zm4.2018-16.87323c-2.3125 0-4.2018-1.88928-4.2018-4.20178s1.8893-4.20179 4.2018-4.20179 4.2018 1.88929 4.2018 4.20179v4.20178zm0 2.11783c2.3125 0 4.2018 1.8893 4.2018 4.2018s-1.8893 4.2018-4.2018 4.2018h-10.52141c-2.3125 0-4.20179-1.8893-4.20179-4.2018s1.88929-4.2018 4.20179-4.2018zm16.8732 4.2018c0-2.3125 1.8893-4.2018 4.2018-4.2018s4.2018 1.8893 4.2018 4.2018-1.8893 4.2018-4.2018 4.2018h-4.2018zm-2.1178 0c0 2.3125-1.8893 4.2018-4.2018 4.2018s-4.2018-1.8893-4.2018-4.2018v-10.52141c0-2.3125 1.8893-4.20179 4.2018-4.20179s4.2018 1.88929 4.2018 4.20179zm-4.2018 16.8732c2.3125 0 4.2018 1.8893 4.2018 4.2018s-1.8893 4.2018-4.2018 4.2018-4.2018-1.8893-4.2018-4.2018v-4.2018zm0-2.1178c-2.3125 0-4.2018-1.8893-4.2018-4.2018s1.8893-4.2018 4.2018-4.2018h10.5214c2.3125 0 4.2018 1.8893 4.2018 4.2018s-1.8893 4.2018-4.2018 4.2018z"/></svg>