<svg fill="none" height="39" viewBox="0 0 40 39" width="40" xmlns="http://www.w3.org/2000/svg"><path d="m20 0c-11.25 0-20 8.75-20 20 0 13.125 11.875 18.75 13.75 18.75 1.25 0 1.25-.625 1.25-1.25v-3.125c-4.375 1.25-6.25-1.25-6.875-3.125 0 0 0-.625-1.25-1.875-.625-.625-3.125-1.875-.625-1.875 1.875 0 3.125 2.5 3.125 2.5 1.875 2.5 4.375 1.875 5.625 1.25 0-1.25 1.25-2.5 1.25-2.5-5-.625-8.75-2.5-8.75-9.375 0-2.5.625-4.375 1.875-5.625 0 0-1.25-2.5 0-5.625 0 0 3.125 0 5.625 2.5 1.875-1.25 8.125-1.25 10 0 2.5-2.5 5.625-2.5 5.625-2.5 1.25 4.375 0 5.625 0 5.625 1.25 1.25 1.875 3.125 1.875 5.625 0 6.875-4.375 8.75-8.75 9.375.625.625 1.25 1.875 1.25 3.75v5c0 .625 0 1.25 1.25 1.25 1.875 0 13.75-5.625 13.75-18.75 0-11.25-8.75-20-20-20z"/></svg>