<svg width="128" height="141" viewBox="0 0 128 141" fill="none" xmlns="http://www.w3.org/2000/svg">
<path opacity="0.2" d="M23.5954 1.23933L2.69612 14.026C1.02226 15.051 0.00106667 16.8741 0.00106667 18.8409L0 136.838C0 139.026 1.7695 140.8 3.95255 140.8H100.008C101.559 140.8 103.081 140.371 104.405 139.561L125.304 126.773C126.978 125.749 127.999 123.925 127.999 121.959L128 3.96191C128 1.77369 126.23 0 124.047 0H27.9924C26.4409 0 24.9204 0.428619 23.5954 1.23933Z" class="fillStd"/>
<path fill-rule="evenodd" clip-rule="evenodd" d="M67.6184 68.6546H41.4137C39.2045 68.6546 37.4137 66.8637 37.4137 64.6546V29.6001C37.4137 27.391 39.2045 25.6001 41.4137 25.6001H58.4034C59.4648 25.6001 60.4827 26.0219 61.2329 26.7728L70.4479 35.9949C71.1974 36.7449 71.6184 37.7619 71.6184 38.8222V64.6546C71.6184 66.8637 69.8275 68.6546 67.6184 68.6546ZM69.8715 38.5547H60.3613C59.2567 38.5547 58.3613 37.6593 58.3613 36.5547V27.0446L69.8715 38.5547ZM103.013 105.493H76.808C74.5988 105.493 72.808 103.703 72.808 101.493V66.439C72.808 64.2298 74.5988 62.439 76.808 62.439H93.7977C94.8591 62.439 95.877 62.8608 96.6272 63.6116L105.842 72.8337C106.592 73.5838 107.013 74.6007 107.013 75.6611V101.493C107.013 103.703 105.222 105.493 103.013 105.493ZM105.266 75.3938H95.7556C94.651 75.3938 93.7556 74.4983 93.7556 73.3938V63.8836L105.266 75.3938ZM24.8 114.884H51.0047C53.2138 114.884 55.0047 113.093 55.0047 110.884V85.0514C55.0047 83.9911 54.5837 82.9741 53.8342 82.2241L44.6192 73.002C43.869 72.2512 42.8511 71.8293 41.7897 71.8293H24.8C22.5908 71.8293 20.8 73.6202 20.8 75.8293V110.884C20.8 113.093 22.5908 114.884 24.8 114.884ZM43.7477 84.7842H53.2578L41.7477 73.274V82.7842C41.7477 83.8888 42.6431 84.7842 43.7477 84.7842Z" class="fillStd"/>
<mask id="mask0" mask-type="alpha" maskUnits="userSpaceOnUse" x="20" y="25" width="88" height="90">
<path fill-rule="evenodd" clip-rule="evenodd" d="M67.6184 68.6546H41.4137C39.2045 68.6546 37.4137 66.8637 37.4137 64.6546V29.6001C37.4137 27.391 39.2045 25.6001 41.4137 25.6001H58.4034C59.4648 25.6001 60.4827 26.0219 61.2329 26.7728L70.4479 35.9949C71.1974 36.7449 71.6184 37.7619 71.6184 38.8222V64.6546C71.6184 66.8637 69.8275 68.6546 67.6184 68.6546ZM69.8715 38.5547H60.3613C59.2567 38.5547 58.3613 37.6593 58.3613 36.5547V27.0446L69.8715 38.5547ZM103.013 105.493H76.808C74.5988 105.493 72.808 103.703 72.808 101.493V66.439C72.808 64.2298 74.5988 62.439 76.808 62.439H93.7977C94.8591 62.439 95.877 62.8608 96.6272 63.6116L105.842 72.8337C106.592 73.5838 107.013 74.6007 107.013 75.6611V101.493C107.013 103.703 105.222 105.493 103.013 105.493ZM105.266 75.3938H95.7556C94.651 75.3938 93.7556 74.4983 93.7556 73.3938V63.8836L105.266 75.3938ZM24.8 114.884H51.0047C53.2138 114.884 55.0047 113.093 55.0047 110.884V85.0514C55.0047 83.9911 54.5837 82.9741 53.8342 82.2241L44.6192 73.002C43.869 72.2512 42.8511 71.8293 41.7897 71.8293H24.8C22.5908 71.8293 20.8 73.6202 20.8 75.8293V110.884C20.8 113.093 22.5908 114.884 24.8 114.884ZM43.7477 84.7842H53.2578L41.7477 73.274V82.7842C41.7477 83.8888 42.6431 84.7842 43.7477 84.7842Z" fill="white"/>
</mask>
<g mask="url(#mask0)">
<path fill-rule="evenodd" clip-rule="evenodd" d="M31.6195 79.6176L31.8289 80.6648C31.8289 81.2931 31.6195 81.712 30.9912 81.9214L28.8969 82.1308C28.2686 82.1308 27.8497 81.9214 27.8497 81.2931L27.6403 80.2459C25.3366 64.748 34.9704 49.8783 50.259 45.6897C53.6099 44.6425 56.7513 44.2237 60.1022 44.4331C60.3117 44.4331 60.7305 44.6425 60.94 45.0614V45.2708C61.1494 45.6897 60.94 46.1085 60.7305 46.318L52.9816 54.9047L52.7721 55.1141C52.1438 55.3235 51.5155 55.1141 51.3061 54.6953L48.7929 50.5066C36.8553 54.9047 29.7346 67.0517 31.6195 79.6176ZM70.3644 46.9461L69.3172 46.5272C68.6889 46.3178 68.27 46.5272 68.0606 47.1555L67.2229 49.0404C67.0135 49.6687 67.2229 50.0876 67.8512 50.297L68.8983 50.7159C80.8359 55.3234 87.7472 67.6798 85.6529 80.2458H80.8359C80.2076 80.2458 79.7888 80.6646 79.7888 81.2929V81.7118L83.3491 92.8117C83.5586 93.2305 83.768 93.44 84.1869 93.44H84.3963C84.8151 93.44 85.0246 93.2305 85.234 93.0211C86.9095 90.2985 88.3755 87.157 89.2132 84.0155C92.983 68.727 85.0246 52.8102 70.3644 46.9461ZM77.4851 96.7908C77.0662 96.372 76.4379 96.1625 76.0191 96.5814L75.1813 97.2097C65.338 105.168 51.0967 105.168 41.2534 97.0003L43.7666 92.8116C43.976 92.3928 43.976 91.7645 43.3477 91.3456C43.3477 91.3456 43.1383 91.3456 43.1383 91.1362L31.6195 88.623C31.2006 88.623 30.7818 88.623 30.5724 89.0419C30.3629 89.2513 30.3629 89.6702 30.5724 90.089C32.0384 93.0211 34.1327 95.7437 36.4364 98.0474C47.7458 109.147 65.338 110.194 77.9039 100.351L78.7417 99.7229C79.1605 99.304 79.37 98.6757 78.9511 98.2569L77.4851 96.7908Z" fill="white"/>
<path d="M31.8289 80.6648H32.1296V80.635L32.1238 80.6058L31.8289 80.6648ZM31.6195 79.6176L31.3222 79.6622L31.3233 79.6694L31.3247 79.6766L31.6195 79.6176ZM30.9912 81.9214L31.0211 82.2206L31.0545 82.2172L31.0863 82.2066L30.9912 81.9214ZM28.8969 82.1308V82.4315H28.9119L28.9268 82.43L28.8969 82.1308ZM27.8497 81.2931H28.1504V81.2633L28.1446 81.2341L27.8497 81.2931ZM27.6403 80.2459L27.3429 80.2901L27.344 80.2976L27.3455 80.3049L27.6403 80.2459ZM50.259 45.6897L50.3384 45.9798L50.3486 45.9767L50.259 45.6897ZM60.1022 44.4331L60.0835 44.7332L60.0929 44.7337H60.1022V44.4331ZM60.94 45.0614H61.2406V44.9904L61.2089 44.9269L60.94 45.0614ZM60.94 45.2708H60.6393V45.3418L60.6711 45.4053L60.94 45.2708ZM60.7305 46.318L60.518 46.1054L60.5125 46.1108L60.5073 46.1166L60.7305 46.318ZM52.9816 54.9047L53.1942 55.1173L53.1996 55.1118L53.2048 55.1061L52.9816 54.9047ZM52.7721 55.1141L52.8672 55.3993L52.9345 55.3769L52.9847 55.3267L52.7721 55.1141ZM51.3061 54.6953L51.575 54.5608L51.5699 54.5505L51.5639 54.5406L51.3061 54.6953ZM48.7929 50.5066L49.0507 50.3519L48.9226 50.1384L48.689 50.2245L48.7929 50.5066ZM69.3172 46.5272L69.4289 46.2481L69.4207 46.2448L69.4123 46.242L69.3172 46.5272ZM70.3644 46.9461L70.2527 47.2252L70.3644 46.9461ZM68.0606 47.1555L68.3354 47.2776L68.3413 47.2644L68.3458 47.2506L68.0606 47.1555ZM67.2229 49.0404L66.9481 48.9183L66.9423 48.9316L66.9377 48.9453L67.2229 49.0404ZM67.8512 50.297L67.9628 50.0178L67.9546 50.0146L67.9463 50.0118L67.8512 50.297ZM68.8983 50.7159L68.7867 50.995L68.7901 50.9963L68.8983 50.7159ZM85.6529 80.2458V80.5464H85.9076L85.9494 80.2952L85.6529 80.2458ZM79.7888 81.7118H79.4881V81.7588L79.5025 81.8036L79.7888 81.7118ZM83.3491 92.8117L83.0628 92.9035L83.0699 92.9255L83.0802 92.9461L83.3491 92.8117ZM85.234 93.0211L85.4466 93.2337L85.4716 93.2087L85.4901 93.1787L85.234 93.0211ZM89.2132 84.0155L89.5038 84.093L89.5051 84.0875L89.2132 84.0155ZM76.0191 96.5814L76.1994 96.8219L76.2165 96.8091L76.2317 96.794L76.0191 96.5814ZM77.4851 96.7908L77.6977 96.5782L77.6977 96.5782L77.4851 96.7908ZM75.1813 97.2097L75.0008 96.969L74.9923 96.9759L75.1813 97.2097ZM41.2534 97.0003L40.9956 96.8456L40.8628 97.0669L41.0614 97.2316L41.2534 97.0003ZM43.7666 92.8116L44.0244 92.9663L44.0303 92.9564L44.0355 92.9461L43.7666 92.8116ZM43.3477 91.3456L43.5145 91.0954L43.4387 91.0449H43.3477V91.3456ZM43.1383 91.1362H43.4389V90.894L43.2024 90.8424L43.1383 91.1362ZM31.6195 88.623L31.6836 88.3293L31.6519 88.3223H31.6195V88.623ZM30.5724 89.0419L30.7849 89.2545L30.8194 89.22L30.8413 89.1763L30.5724 89.0419ZM30.5724 90.089L30.8413 89.9546H30.8413L30.5724 90.089ZM36.4364 98.0474L36.2238 98.26L36.2258 98.262L36.4364 98.0474ZM77.9039 100.351L77.7235 100.111L77.7185 100.114L77.9039 100.351ZM78.7417 99.7229L78.9221 99.9634L78.9392 99.9506L78.9543 99.9355L78.7417 99.7229ZM78.9511 98.2569L78.7385 98.4695H78.7385L78.9511 98.2569ZM32.1238 80.6058L31.9143 79.5587L31.3247 79.6766L31.5341 80.7238L32.1238 80.6058ZM31.0863 82.2066C31.4505 82.0852 31.7245 81.8913 31.9006 81.6095C32.0729 81.3339 32.1296 81.0087 32.1296 80.6648H31.5283C31.5283 80.9492 31.4803 81.1476 31.3907 81.2908C31.305 81.4279 31.1602 81.5481 30.8961 81.6362L31.0863 82.2066ZM28.9268 82.43L31.0211 82.2206L30.9613 81.6222L28.867 81.8317L28.9268 82.43ZM27.5491 81.2931C27.5491 81.6814 27.6837 81.9928 27.963 82.1922C28.222 82.3773 28.5597 82.4315 28.8969 82.4315V81.8302C28.6058 81.8302 28.4199 81.7797 28.3125 81.7029C28.2252 81.6406 28.1504 81.5331 28.1504 81.2931H27.5491ZM27.3455 80.3049L27.5549 81.3521L28.1446 81.2341L27.9351 80.187L27.3455 80.3049ZM50.1795 45.3997C34.7444 49.6285 25.0168 64.6416 27.3429 80.2901L27.9377 80.2017C25.6563 64.8544 35.1965 50.1281 50.3384 45.9797L50.1795 45.3997ZM60.121 44.133C56.7302 43.9211 53.552 44.3456 50.1693 45.4027L50.3486 45.9767C53.6677 44.9394 56.7724 44.5262 60.0835 44.7332L60.121 44.133ZM61.2089 44.9269C61.0774 44.664 60.8818 44.4693 60.6879 44.34C60.5022 44.2162 60.2872 44.1324 60.1022 44.1324V44.7337C60.1268 44.7337 60.2259 44.7547 60.3543 44.8403C60.4746 44.9205 60.5931 45.0399 60.6711 45.1958L61.2089 44.9269ZM61.2406 45.2708V45.0614H60.6393V45.2708H61.2406ZM60.9431 46.5306C61.1998 46.2739 61.5 45.7185 61.2089 45.1364L60.6711 45.4053C60.7988 45.6608 60.6801 45.9432 60.518 46.1054L60.9431 46.5306ZM53.2048 55.1061L60.9538 46.5194L60.5073 46.1166L52.7584 54.7033L53.2048 55.1061ZM52.9847 55.3267L53.1942 55.1173L52.769 54.6921L52.5595 54.9015L52.9847 55.3267ZM51.0372 54.8297C51.3361 55.4276 52.1508 55.6381 52.8672 55.3993L52.6771 54.8289C52.1369 55.009 51.695 54.8007 51.575 54.5608L51.0372 54.8297ZM48.5351 50.6613L51.0483 54.8499L51.5639 54.5406L49.0507 50.3519L48.5351 50.6613ZM31.9168 79.573C30.0529 67.1469 37.0941 55.1371 48.8969 50.7887L48.689 50.2245C36.6165 54.6723 29.4163 66.9565 31.3222 79.6622L31.9168 79.573ZM69.2055 46.8064L70.2527 47.2252L70.476 46.6669L69.4289 46.2481L69.2055 46.8064ZM68.3458 47.2506C68.4359 46.9804 68.5533 46.8526 68.6663 46.7961C68.7793 46.7397 68.952 46.7224 69.2221 46.8124L69.4123 46.242C69.0542 46.1226 68.7033 46.1054 68.3974 46.2583C68.0915 46.4113 67.8948 46.7023 67.7754 47.0604L68.3458 47.2506ZM67.4976 49.1625L68.3354 47.2776L67.7859 47.0334L66.9481 48.9183L67.4976 49.1625ZM67.9463 50.0118C67.6761 49.9217 67.5483 49.8043 67.4918 49.6913C67.4353 49.5784 67.4181 49.4057 67.5081 49.1355L66.9377 48.9453C66.8183 49.3034 66.801 49.6543 66.954 49.9602C67.1069 50.2661 67.398 50.4628 67.7561 50.5822L67.9463 50.0118ZM69.01 50.4367L67.9628 50.0178L67.7395 50.5761L68.7867 50.995L69.01 50.4367ZM85.9494 80.2952C88.0668 67.5908 81.0794 55.095 69.0066 50.4354L68.7901 50.9963C80.5925 55.5517 87.4275 67.7689 85.3563 80.1963L85.9494 80.2952ZM80.8359 80.5464H85.6529V79.9451H80.8359V80.5464ZM80.0894 81.2929C80.0894 81.0471 80.1701 80.8656 80.2893 80.7463C80.4086 80.627 80.5901 80.5464 80.8359 80.5464V79.9451C80.4535 79.9451 80.1114 80.0739 79.8642 80.3211C79.6169 80.5684 79.4881 80.9104 79.4881 81.2929H80.0894ZM80.0894 81.7118V81.2929H79.4881V81.7118H80.0894ZM83.6354 92.7198L80.0751 81.6199L79.5025 81.8036L83.0628 92.9035L83.6354 92.7198ZM84.1869 93.1393C84.0335 93.1393 83.946 93.1031 83.8773 93.0481C83.7978 92.9845 83.7166 92.8744 83.618 92.6772L83.0802 92.9461C83.191 93.1678 83.3194 93.3718 83.5016 93.5177C83.6947 93.6721 83.9214 93.7406 84.1869 93.7406V93.1393ZM84.3963 93.1393H84.1869V93.7406H84.3963V93.1393ZM85.0214 92.8085C84.8151 93.0148 84.683 93.1393 84.3963 93.1393V93.7406C84.9473 93.7406 85.234 93.4463 85.4466 93.2337L85.0214 92.8085ZM88.9227 83.9381C88.094 87.0456 86.6415 90.1602 84.978 92.8635L85.4901 93.1787C87.1774 90.4367 88.6569 87.2684 89.5037 84.093L88.9227 83.9381ZM70.2527 47.2252C84.7708 53.0325 92.6559 68.7976 88.9213 83.9435L89.5051 84.0875C93.31 68.6564 85.2784 52.5879 70.476 46.6669L70.2527 47.2252ZM76.2317 96.794C76.3586 96.667 76.513 96.6308 76.6931 96.6668C76.8837 96.7049 77.0946 96.8255 77.2725 97.0034L77.6977 96.5782C77.4567 96.3373 77.144 96.1437 76.811 96.0772C76.4676 96.0085 76.0984 96.0769 75.8065 96.3688L76.2317 96.794ZM75.3617 97.4502L76.1994 96.8219L75.8387 96.3409L75.0009 96.9692L75.3617 97.4502ZM41.0614 97.2316C51.0157 105.492 65.4165 105.491 75.3704 97.4435L74.9923 96.9759C65.2596 104.845 51.1776 104.845 41.4454 96.7689L41.0614 97.2316ZM43.5087 92.6569L40.9956 96.8456L41.5112 97.155L44.0244 92.9663L43.5087 92.6569ZM43.1809 91.5958C43.4324 91.7634 43.5406 91.9582 43.5765 92.1376C43.6138 92.3244 43.5771 92.5183 43.4976 92.6772L44.0355 92.9461C44.1655 92.6861 44.2334 92.3564 44.1661 92.0197C44.0973 91.6755 43.8913 91.3467 43.5145 91.0954L43.1809 91.5958ZM42.8376 91.1362C42.8376 91.2411 42.8647 91.3399 42.9208 91.424C42.9757 91.5063 43.0467 91.5574 43.1085 91.5883C43.1692 91.6187 43.2262 91.6323 43.2655 91.6389C43.2859 91.6423 43.3036 91.6441 43.3173 91.6451C43.3242 91.6456 43.3302 91.6459 43.3353 91.646C43.3379 91.6461 43.3402 91.6462 43.3422 91.6462C43.3433 91.6462 43.3442 91.6462 43.3452 91.6462C43.3456 91.6463 43.3461 91.6463 43.3465 91.6463C43.3467 91.6463 43.3469 91.6463 43.3471 91.6463C43.3472 91.6463 43.3473 91.6463 43.3474 91.6463C43.3475 91.6463 43.3477 91.6463 43.3477 91.3456C43.3477 91.0449 43.3478 91.0449 43.348 91.0449C43.348 91.0449 43.3482 91.0449 43.3483 91.0449C43.3485 91.0449 43.3487 91.045 43.3488 91.045C43.3492 91.045 43.3496 91.045 43.3499 91.045C43.3506 91.045 43.3513 91.045 43.3519 91.045C43.3532 91.045 43.3543 91.045 43.3554 91.0451C43.3574 91.0451 43.3589 91.0452 43.3601 91.0453C43.3624 91.0455 43.3637 91.0456 43.3644 91.0458C43.3645 91.0458 43.3691 91.0464 43.3774 91.0505C43.3869 91.0553 43.4056 91.0671 43.4211 91.0905C43.4287 91.1019 43.4336 91.1131 43.4363 91.1227C43.439 91.132 43.4389 91.1371 43.4389 91.1362H42.8376ZM31.5554 88.9167L43.0742 91.4299L43.2024 90.8424L31.6836 88.3293L31.5554 88.9167ZM30.8413 89.1763C30.9029 89.0531 30.9853 88.9972 31.1 88.9644C31.2351 88.9258 31.3997 88.9236 31.6195 88.9236V88.3223C31.4204 88.3223 31.1662 88.3201 30.9348 88.3863C30.683 88.4582 30.4513 88.6117 30.3034 88.9074L30.8413 89.1763ZM30.8413 89.9546C30.7534 89.7789 30.7159 89.6153 30.7159 89.4869C30.7159 89.3565 30.7531 89.2863 30.7849 89.2545L30.3598 88.8293C30.1821 89.0069 30.1146 89.2508 30.1146 89.4869C30.1146 89.725 30.1818 89.9803 30.3034 90.2235L30.8413 89.9546ZM36.649 97.8348C34.3634 95.5492 32.2901 92.8522 30.8413 89.9546L30.3034 90.2235C31.7867 93.1899 33.902 95.9382 36.2239 98.26L36.649 97.8348ZM77.7185 100.114C65.2718 109.864 47.849 108.827 36.647 97.8329L36.2258 98.262C47.6426 109.467 65.4042 110.525 78.0893 100.588L77.7185 100.114ZM78.5613 99.4824L77.7235 100.111L78.0843 100.592L78.9221 99.9634L78.5613 99.4824ZM78.7385 98.4695C78.8655 98.5964 78.9017 98.7508 78.8657 98.9309C78.8276 99.1215 78.707 99.3324 78.5291 99.5103L78.9543 99.9355C79.1952 99.6945 79.3888 99.3818 79.4553 99.0488C79.524 98.7054 79.4556 98.3362 79.1637 98.0443L78.7385 98.4695ZM77.2725 97.0034L78.7385 98.4695L79.1637 98.0443L77.6977 96.5782L77.2725 97.0034Z" fill="white"/>
</g>
</svg>
