<svg fill="none" height="25" viewBox="0 0 26 25" width="26" xmlns="http://www.w3.org/2000/svg"><path class="fillStd" clip-rule="evenodd" d="m21.697 18.8717c-1.4363-.4777-2.9805-.8347-4.6057-1.0657.2212-1.2997.339-2.6618.3765-4.056h6.0037c-.1342 1.8907-.7695 3.6405-1.7745 5.1217zm-6.1215 4.2976c.4995-1.2068.9082-2.511 1.2225-3.885 1.3485.1995 2.6415.4942 3.8662.8812-1.353 1.4423-3.1094 2.5035-5.0887 3.0038zm-1.8473.2939c-.2415.0173-.4822.0368-.7282.0368s-.486-.0195-.7282-.0368c-.6383-1.329-1.155-2.8079-1.5375-4.3777.7455-.0652 1.5007-.1035 2.2657-.1035s1.5203.0383 2.2665.1035c-.3832 1.5698-.9 3.0487-1.5383 4.3777zm-8.39245-3.2977c1.22475-.387 2.51775-.6817 3.86625-.8812.31425 1.374.723 2.6782 1.2225 3.885-1.97925-.5003-3.735-1.5615-5.08875-3.0038zm-1.03274-1.2938c-1.005-1.4812-1.64026-3.231-1.77451-5.1217h6.00375c.0375 1.3942.15525 2.7563.3765 4.056-1.62525.231-3.1695.588-4.60574 1.0657zm0-11.74343c1.43624.47775 2.98049.83547 4.60574 1.06571-.22125 1.29976-.339 2.66182-.3765 4.05602h-6.00375c.13425-1.8907.76951-3.64048 1.77451-5.12173zm6.12149-4.29754c-.4995 1.20675-.90825 2.511-1.2225 3.885-1.3485-.19875-2.6415-.49424-3.86625-.88124 1.35375-1.44225 3.1095-2.50351 5.08875-3.00376zm1.8473-.29397c.2422-.0165.4822-.03676.7282-.03676s.4867.02026.7282.03676c.6383 1.329 1.1551 2.80873 1.5383 4.37773-.7462.06525-1.5015.1035-2.2665.1035s-1.5202-.03825-2.2657-.1035c.3825-1.569.8992-3.04873 1.5375-4.37773zm3.6937 11.21324c-.0405 1.3208-.1605 2.6198-.3863 3.867-.8445-.0735-1.7032-.117-2.5792-.117s-1.7348.0435-2.5785.117c-.2265-1.2472-.3465-2.5462-.3863-3.867zm-5.9303-1.5c.0398-1.3208.1598-2.61975.3863-3.867.8437.0735 1.7025.117 2.5785.117s1.7348-.0435 2.5785-.117c.2265 1.24725.3465 2.5462.387 3.867zm10.629-6.41551c-1.2247.387-2.5177.68249-3.8662.88124-.3143-1.374-.723-2.67825-1.2225-3.885 1.9793.50025 3.7357 1.56151 5.0887 3.00376zm1.0328 1.29378c1.005 1.48125 1.6403 3.23103 1.7745 5.12173h-6.0037c-.0375-1.3942-.1553-2.75626-.3765-4.05602 1.6252-.23024 3.1694-.58796 4.6057-1.06571zm-8.697-6.12827c-6.627 0-12 5.37225-12 12 0 6.6278 5.373 12 12 12s12-5.3722 12-12c0-6.62775-5.373-12-12-12z" fill-rule="evenodd" stroke="#fff" stroke-width=".5"/></svg>