<svg fill="none" height="21" viewBox="0 0 27 21" width="27" xmlns="http://www.w3.org/2000/svg">
    <path class="fillStd" d="m26.6265 2.48402c-.9793.42311-2.0329.70752-3.1383.83641 1.1293-.65708 1.9951-1.69524 2.4028-2.935148-1.0564.609447-2.2248 1.050768-3.4704 1.287548-.9961-1.029759-2.4153-1.67283-3.9873-1.67283-3.015 0-5.4612 2.37194-5.4612 5.30009 0 .4161.0477.821.1415 1.20908-4.53931-.22136-8.56586-2.33271-11.25864-5.53966-.47074.78317-.73974 1.69244-.73974 2.66475 0 1.83815.96391 3.46335 2.42938 4.41184-.89666-.02802-1.73727-.26479-2.47562-.66409v.06725c0 2.56944 1.88298 4.71164 4.38242 5.19924-.45814.1205-.94009.1863-1.43886.1863-.35165 0-.69351-.0322-1.02695-.0953.69491 2.1072 2.71239 3.6399 5.10394 3.6819-1.87037 1.4235-4.2255 2.2697-6.78517 2.2697-.441327 0-.875646-.0252-1.30436-.0742 2.41957 1.5047 5.28888 2.3831 8.37534 2.3831 10.04816 0 15.54296-8.0811 15.54296-15.08626l-.0154-.68651c1.0648-.74534 1.9909-1.67843 2.7236-2.74321z" />
    <path class="primaryStroke" d="m25.2951 1.01065c-1.014.71524-2.1367 1.26228-3.3248 1.62007-.6378-.73326-1.4853-1.25297-2.428-1.48885-.9427-.235881-1.9351-.176547-2.843.16998-.9079.34652-1.6875.96351-2.2333 1.76753-.5458.80401-.8315 1.75626-.8184 2.72794v1.05887c-1.8609.04825-3.70474-.36445-5.36744-1.20134-1.66271-.8369-3.09263-2.07201-4.16242-3.59533 0 0-4.235477 9.52978 5.29434 13.76528-2.18071 1.4803-4.77851 2.2225-7.41208 2.1177 9.5298 5.2944 21.1774 0 21.1774-12.17694-.001-.29495-.0294-.58916-.0847-.87886 1.0806-1.06576 1.8433-2.41135 2.2024-3.88605z" stroke-linecap="round" stroke-linejoin="round"/>
</svg>