<svg width="124" height="40" viewBox="0 0 124 40" fill="none" xmlns="http://www.w3.org/2000/svg">
<path opacity="0.5" d="M61.5089 30.7579C66.796 30.7579 71.0819 26.4764 71.0819 21.195V4.34932C71.0819 1.96395 73.0176 0.0304375 75.4056 0.0304375C77.7933 0.0304375 79.7292 1.96395 79.7292 4.34932V21.0633C79.7292 31.1109 71.5964 39.2594 61.5483 39.3018C61.5307 39.302 61.5134 39.3032 61.4957 39.3032C59.1394 39.2961 57.2315 37.3863 57.2315 35.0308C57.2315 32.671 59.1465 30.7579 61.5089 30.7579Z" class="fillStd"/>
<path d="M61.5004 30.7579C56.2133 30.7579 51.9274 26.4764 51.9274 21.195V4.34932C51.9274 1.96395 49.9918 0.0304375 47.6038 0.0304375C45.216 0.0304375 43.2802 1.96395 43.2802 4.34932V21.0633C43.2802 31.1109 51.413 39.2594 61.4611 39.3018C61.4786 39.302 61.4959 39.3032 61.5137 39.3032C63.8699 39.2961 65.7778 37.3863 65.7778 35.0308C65.7778 32.671 63.8628 30.7579 61.5004 30.7579Z" class="fillStd"/>
<path d="M75.4054 0.0304556C73.0177 0.0304556 71.0818 1.9642 71.0818 4.34958C71.0818 6.73495 73.0177 8.6687 75.4054 8.6687C77.7934 8.6687 79.7293 6.73495 79.7293 4.34958C79.7293 1.9642 77.7934 0.0304556 75.4054 0.0304556Z" class="fillStd"/>
<path opacity="0.5" d="M84.7745 7.37323C83.086 5.68662 83.086 2.95174 84.7745 1.26513C86.463 -0.421711 89.2005 -0.421711 90.889 1.26513L121.948 31.9565C123.636 33.6431 123.636 36.3778 121.948 38.0646C120.259 39.7512 117.521 39.7512 115.833 38.0646L84.7745 7.37323Z" class="fillStd"/>
<path d="M121.948 7.37323C123.636 5.68662 123.636 2.95174 121.948 1.26513C120.259 -0.421711 117.522 -0.421711 115.833 1.26513L84.7744 31.9565C83.0861 33.6431 83.0861 36.3778 84.7744 38.0646C86.4631 39.7512 89.2006 39.7512 90.8889 38.0646L121.948 7.37323Z" class="fillStd"/>
<path d="M118.89 30.6955C116.502 30.6955 114.566 32.6292 114.566 35.0146C114.566 37.4 116.502 39.3337 118.89 39.3337C121.278 39.3337 123.214 37.4 123.214 35.0146C123.214 32.6292 121.278 30.6955 118.89 30.6955Z" class="fillStd"/>
<path opacity="0.5" d="M16.7048 22.8366C18.3933 24.5232 21.1308 24.5232 22.8193 22.8366C24.5078 21.15 24.5078 18.4151 22.8193 16.7285L7.40852 1.35947C5.72001 -0.327139 2.98253 -0.327139 1.29403 1.35947C-0.394477 3.04608 -0.394477 5.78095 1.29403 7.46756L16.7048 22.8366Z" class="fillStd"/>
<path opacity="0.5" d="M39.4937 34.9199C39.4937 37.3053 37.558 39.239 35.17 39.239C32.7823 39.239 30.8464 37.3053 30.8464 34.9199V4.41354C30.8464 2.02817 32.7823 0.0944214 35.17 0.0944214C37.558 0.0944214 39.4937 2.02817 39.4937 4.41354V34.9199Z" class="fillStd"/>
<path d="M38.2348 1.35954C36.5463 -0.327076 33.8088 -0.327076 32.1201 1.35954L16.7096 16.7286C15.0211 18.4154 15.0211 21.1498 16.7096 22.8367C18.3981 24.5235 21.1355 24.5235 22.824 22.8367L38.2348 7.46763C39.9233 5.78102 39.9233 3.04614 38.2348 1.35954Z" class="fillStd"/>
<path d="M4.32339 0.0944214C1.93541 0.0944214 0 2.02817 0 4.41354V34.9199C0 37.3053 1.93541 39.239 4.32339 39.239C6.71137 39.239 8.64701 37.3053 8.64701 34.9199V4.41354C8.64701 2.02817 6.71137 0.0944214 4.32339 0.0944214Z" class="fillStd"/>
<path d="M39.4937 34.9199C39.4937 37.3053 37.558 39.239 35.17 39.239C32.7823 39.239 30.8464 37.3053 30.8464 34.9199C30.8464 32.5345 32.7823 30.6008 35.17 30.6008C37.558 30.6008 39.4937 32.5345 39.4937 34.9199Z" class="fillStd"/>
</svg>
