<svg fill="none" height="40" viewBox="0 0 40 40" width="40" xmlns="http://www.w3.org/2000/svg"><path clip-rule="evenodd" d="m20 0c-11.04556 0-20 8.95444-20 20 0 11.0456 8.95444 20 20 20 11.0456 0 20-8.9544 20-20 0-11.04556-8.9544-20-20-20zm0 38.4c-10.16222 0-18.4-8.2378-18.4-18.4 0-10.16222 8.23778-18.4 18.4-18.4 10.1622 0 18.4 8.23778 18.4 18.4 0 10.1622-8.2378 18.4-18.4 18.4zm.6-16.2h3.6v7.2h1.6v-7.2h3.6v-1.6h-8.8zm-5.6 1.6688 3.4683-3.4689 1.1317 1.1317-3.4689 3.4683 3.4689 3.4683-1.1317 1.1317-3.4683-3.4689-3.4684 3.4689-1.1316-1.1317 3.4689-3.4683-3.4689-3.4683 1.1316-1.1317zm9.9-4.469c2.485 0 4.5-2.015 4.5-4.5h-1.6c0 1.6017-1.2984 2.9-2.9 2.9-.4573 0-.8895-.1061-1.2739-.2944l3.8794-3.8795 1.1711-1.1711c-.8022-1.2361-2.1933-2.0544-3.7766-2.0544-2.4856 0-4.5 2.015-4.5 4.5s2.0144 4.4994 4.5 4.4994zm0-7.4c.5622 0 1.0866.1606 1.5311.4378l-3.9934 3.9933c-.2772-.4444-.4372-.9688-.4372-1.5311-.0005-1.6016 1.2978-2.9 2.8995-2.9zm-13.2745-1.5999 3.3745 4.0211 3.3744-4.0211 1.2256 1.0283-3.8 4.5289v3.4428h-1.6v-3.4428l-3.8-4.5289z" fill-rule="evenodd"/></svg>