<svg width="150" height="50" viewBox="0 0 150 50" fill="none" xmlns="http://www.w3.org/2000/svg">
<path class="tiltLogo-notch4" d="M136.532 0.0249863H136.006C135.203 0.0249863 134.576 0.674662 134.576 1.44927V13.943C134.576 14.7426 135.228 15.3673 136.006 15.3673H148.545C149.348 15.3673 149.975 14.7176 149.975 13.943V8.74563C149.975 8.24588 149.724 7.7961 149.298 7.52124L137.26 0.199899C137.059 0.0749613 136.808 0.0249863 136.532 0.0249863Z" fill="#20BA31"/>
<path class="tiltLogo-notch1" d="M0 8.74562V13.918C0 14.7176 0.652065 15.3423 1.42953 15.3423H13.9692C14.7718 15.3423 15.3988 14.6926 15.3988 13.918V1.42429C15.3988 0.624687 14.7467 0 13.9692 0H13.4426C13.1667 0 12.9159 0.0749625 12.6902 0.1999L0.652065 7.52124C0.250794 7.7961 0 8.27086 0 8.74562Z" fill="#20BA31"/>
<path class="tiltLogo-notch2" d="M51.162 1.44927V1.97401C51.162 2.24887 51.2373 2.49875 51.3627 2.72364L58.7109 14.7176C58.9617 15.1424 59.4382 15.3923 59.9398 15.3923H66.4605C67.263 15.3923 67.89 14.7426 67.89 13.968V1.47426C67.89 0.67466 67.2379 0.0499719 66.4605 0.0499719H52.6166C51.8141 0.0249844 51.162 0.649672 51.162 1.44927Z" fill="#20BA31"/>
<path class="tiltLogo-notch3" d="M109.095 41.2544V36.082C109.095 35.2824 108.443 34.6577 107.666 34.6577H95.1262C94.3237 34.6577 93.6967 35.3073 93.6967 36.082V48.5757C93.6967 49.3753 94.3488 50 95.1262 50H95.6529C95.9288 50 96.1796 49.925 96.4053 49.8001L108.443 42.4788C108.845 42.2039 109.095 41.7541 109.095 41.2544Z" fill="#20BA31"/>
<path d="M45.9204 1.44928V13.8181C45.9204 14.6177 45.2684 15.2424 44.4909 15.2424H36.4404C35.6379 15.2424 35.0109 15.8921 35.0109 16.6667V48.5507C35.0109 49.3503 34.3588 49.975 33.5813 49.975H19.7124C18.9099 49.975 18.2829 49.3253 18.2829 48.5507V1.42429C18.2829 0.624688 18.935 0 19.7124 0H44.4909C45.2934 0.0249875 45.9204 0.649675 45.9204 1.44928Z" fill="#70D37B"/>
<path d="M131.717 1.44927V48.5757C131.717 49.3753 131.065 50 130.288 50H116.444C115.641 50 115.014 49.3503 115.014 48.5757V16.6667C115.014 15.8671 114.362 15.2424 113.585 15.2424H105.534C104.732 15.2424 104.105 14.5927 104.105 13.8181V1.44927C104.105 0.649674 104.757 0.0249863 105.534 0.0249863H130.313C131.065 0.0249863 131.717 0.649674 131.717 1.44927Z" fill="#70D37B"/>
<path d="M89.383 50H75.5392C74.7367 50 74.1097 49.3503 74.1097 48.5757V1.42429C74.1097 0.624688 74.7617 0 75.5392 0H89.383C90.1856 0 90.8126 0.649675 90.8126 1.42429V48.5507C90.8126 49.3503 90.1856 50 89.383 50Z" fill="#70D37B"/>
<path d="M66.7614 50H52.2906C51.6636 50 51.162 49.5003 51.162 48.8756V20.2899C51.162 19.6652 51.6636 19.1654 52.2906 19.1654H66.7614C67.3884 19.1654 67.89 19.6652 67.89 20.2899V48.8756C67.89 49.4753 67.3884 50 66.7614 50Z" fill="#70D37B"/>
</svg>
