<svg width="24" height="24" viewBox="0 0 24 24" fill="none" xmlns="http://www.w3.org/2000/svg">
<path fill-rule="evenodd" clip-rule="evenodd" d="M24 12C24 5.373 18.6278 0 12 0C5.37225 0 0 5.373 0 12C0 18.6278 5.37225 24 12 24C18.6278 24 24 18.6278 24 12ZM17.8223 8.53208C18.414 8.46308 18.978 8.31083 19.5023 8.08433C19.11 8.65433 18.6143 9.15383 18.0443 9.55283L18.0525 9.92033C18.0525 13.6703 15.111 17.9963 9.73201 17.9963C8.07976 17.9963 6.54376 17.5261 5.24851 16.7206C5.47801 16.7468 5.71051 16.7603 5.94676 16.7603C7.31701 16.7603 8.57776 16.3073 9.57901 15.5453C8.29876 15.5228 7.21876 14.7023 6.84676 13.5743C7.02526 13.6081 7.20826 13.6253 7.39651 13.6253C7.66351 13.6253 7.92151 13.5901 8.16676 13.5256C6.82876 13.2646 5.82076 12.1178 5.82076 10.7423V10.7063C6.21601 10.9201 6.66601 11.0468 7.14601 11.0618C6.36151 10.5541 5.84551 9.68408 5.84551 8.70008C5.84551 8.17958 5.98951 7.69283 6.24151 7.27358C7.68301 8.99033 9.83851 10.1206 12.2685 10.2391C12.2183 10.0313 12.1928 9.81458 12.1928 9.59183C12.1928 8.02433 13.5023 6.75458 15.1163 6.75458C15.9578 6.75458 16.7175 7.09883 17.2508 7.65008C17.9175 7.52333 18.543 7.28708 19.1085 6.96083C18.8903 7.62458 18.4268 8.18033 17.8223 8.53208Z" fill="#9A9A9A"/>
</svg>
