<svg width="24" height="17" viewBox="0 0 24 17" fill="none" xmlns="http://www.w3.org/2000/svg">
<path class="fillStd" fill-rule="evenodd" clip-rule="evenodd" d="M0 1.5C0 0.671573 0.671573 0 1.5 0H22.5C23.3284 0 24 0.671573 24 1.5C24 2.32843 23.3284 3 22.5 3H1.5C0.671573 3 0 2.32843 0 1.5ZM0 8.5C0 7.67157 0.671573 7 1.5 7H22.5C23.3284 7 24 7.67157 24 8.5C24 9.32843 23.3284 10 22.5 10H1.5C0.671573 10 0 9.32843 0 8.5ZM1.5 14C0.671573 14 0 14.6716 0 15.5C0 16.3284 0.671573 17 1.5 17H22.5C23.3284 17 24 16.3284 24 15.5C24 14.6716 23.3284 14 22.5 14H1.5Z" />
</svg>
