<svg width="24" height="24" viewBox="0 0 24 24" fill="none" xmlns="http://www.w3.org/2000/svg">
<path fill-rule="evenodd" clip-rule="evenodd" d="M2.59338 0.444954C2.00011 -0.148318 1.03823 -0.148318 0.444954 0.444954C-0.148318 1.03823 -0.148318 2.00011 0.444954 2.59338L9.85158 12L0.444956 21.4066C-0.148316 21.9999 -0.148316 22.9618 0.444956 23.5551C1.03823 24.1483 2.00011 24.1483 2.59338 23.5551L12 14.1484L21.4066 23.555C21.9999 24.1483 22.9618 24.1483 23.555 23.555C24.1483 22.9618 24.1483 21.9999 23.555 21.4066L14.1484 12L23.555 2.5934C24.1483 2.00013 24.1483 1.03824 23.555 0.444972C22.9618 -0.1483 21.9999 -0.1483 21.4066 0.444971L12 9.85158L2.59338 0.444954Z" fill="#9A9A9A"/>
</svg>
